<?xml version="1.0" encoding="UTF-8"?>
<svg id="Capa_1" data-name="Capa 1" xmlns="http://www.w3.org/2000/svg" viewBox="0 0 958.07 264.88">
  <defs>
    <style>
      .cls-1 {
        fill: #020202;
      }

      .cls-1, .cls-2, .cls-3, .cls-4, .cls-5, .cls-6, .cls-7, .cls-8, .cls-9, .cls-10, .cls-11, .cls-12, .cls-13, .cls-14, .cls-15, .cls-16, .cls-17, .cls-18, .cls-19, .cls-20, .cls-21, .cls-22, .cls-23, .cls-24, .cls-25, .cls-26, .cls-27, .cls-28, .cls-29, .cls-30, .cls-31, .cls-32 {
        stroke-width: 0px;
      }

      .cls-2 {
        fill: #1c1e20;
      }

      .cls-3 {
        fill: #242628;
      }

      .cls-4 {
        fill: #15181a;
      }

      .cls-5 {
        fill: #111415;
      }

      .cls-6 {
        fill: #0b0e10;
      }

      .cls-7 {
        fill: #101214;
      }

      .cls-8 {
        fill: #020203;
      }

      .cls-9 {
        fill: #010101;
      }

      .cls-10 {
        fill: #252829;
      }

      .cls-11 {
        fill: #2a2c2e;
      }

      .cls-12 {
        fill: #121516;
      }

      .cls-13 {
        fill: #2c2f30;
      }

      .cls-14 {
        fill: #0c0e10;
      }

      .cls-15 {
        fill: #202224;
      }

      .cls-16 {
        fill: #131618;
      }

      .cls-17 {
        fill: #191b1d;
      }

      .cls-18 {
        fill: #212325;
      }

      .cls-19 {
        fill: #1b1d1f;
      }

      .cls-20 {
        fill: #121416;
      }

      .cls-21 {
        fill: #1c1f21;
      }

      .cls-22 {
        fill: #181b1c;
      }

      .cls-23 {
        fill: #171a1c;
      }

      .cls-24 {
        fill: #191c1d;
      }

      .cls-25 {
        fill: #1f2224;
      }

      .cls-26 {
        fill: #222527;
      }

      .cls-27 {
        fill: #1e2022;
      }

      .cls-28 {
        fill: #151719;
      }

      .cls-29 {
        fill: #0e1113;
      }

      .cls-30 {
        fill: #141618;
      }

      .cls-31 {
        fill: #1a1d1f;
      }

      .cls-32 {
        fill: #fcfcfc;
      }
    </style>
  </defs>
  <path class="cls-9" d="m359.36,202.81c.94.22,1.95.29,2.8.7,2.05,1,4.08,1.9,3.98,4.94-.1,3.06-2.65,2.93-4.3,3.89-.9.53-2.22.35-3.36.49-5.24,1.8-9.81-2.31-14.97-1.72-1.26.14-2.49-.25-3.7.62-5.4,3.88-11.14,2.71-17.09,1.41-9.03-1.98-16.39-7.45-24.6-11.13-2.44-1.09-4.71-2.37-7.44-2.45-3.21-.75-6.09-2.05-9.05-3.68-16.38-9.03-29.85-21.09-40.09-36.74-.29-.34-.55-.71-.79-1.09-1-1.69-1.96-3.4-3.45-4.73-2.77-3.5-6-5.96-10.83-4.8-1.54-.82-2.91-1.78-3.07-3.73,3.02-5.84-1.92-10.41-2.55-15.67-.14-1.18-1.34-1.8-2.59-2.01-1.49-.25-2.64-1.15-2.29-2.68.71-3.08-1.18-5.02-2.71-7.13-5.92-8.19-10.77-17.07-16.52-25.37-2.98-5.95-6.35-11.46-12.62-14.72-2.88-1.5-5.18-4.05-7.62-6.27-8.08-5.79-16.91-10.48-24.58-16.88-2.94-2.45-6.2-4.46-10.06-5.24-3.48-4.47-8.8-2.83-13.28-3.95-1.56-.39-3.29.12-4.91-.33-3.63-2.96-7.78-1.53-11.42-.66-5.85,1.39-11.94.62-17.67,2.5-.66.22-1.82-.04-1.8-.4.31-4.79-3.86-3.38-6.13-4.48-4.04-1.96-6.3-5.8-9.33-8.8-1.03-1.02-1.36-2.35-3.08-3.2-2.78-1.37-1.26-3.92.35-5.32,3.01-2.62,2.77-4.8.14-7.46-1.75-1.76-2.14-4.09-1.37-6.53.65-2.3,2.49-2.81,4.55-3.21,7.14-1.39,14.11-3.53,21.4-4.28,2.98-.31,5.92.64,8.84-.17,12.07-2.41,22.84,2.52,33.74,6.26,3.59,1.23,6.35,4.2,8.96,7.03,15.05,8.54,28.95,18.53,42.11,29.89,13.54,11.69,25.98,24.15,36.48,38.6,1.07,1.47,1.68,3.25,3.1,4.47l1.87,3.06c1.41,3.71,4.98,6.83,4.9,10.7-.08,3.83,1.76,6.6,2.84,9.8.63,1.87,1.3,3.81,3.33,4.78.95.46,1.68,1.18,1.53,2.33-1,7.97,4.56,14,6.3,21.16.38,1.56,1.61,2.58,3.37,2.37,1.7-.2,2.82.7,3.94,1.72l-.07-.08c1.41,1.37,1.96,3.23,1.73,4.98-1.02,7.75,3.64,12.03,9.55,15.09,3.65,1.89,6.22,5.64,10.64,6.11l1.89,1.32c3.15,3.59,6.51,6.94,10.74,9.28,12.54,8.54,25.89,15.35,40.67,19.13,1.13.29,2.44.48,3.06,1.49,2.84,4.68,6.68,3.18,10.46,1.78,3.29-1.23,6.57-2.11,10.06-.95v-.04Z"/>
  <path class="cls-1" d="m74.43,10.8c-1.08,2.81.44,4.86,2.29,6.51,2.53,2.26,2.99,4.09-.04,6.29-1.16.84-1.94,2.23-2.78,3.44-.4.57-.3,1.35.3,1.8.85.63.99-.17,1.32-.72.82-1.38,1.69-.2,1.65.32-.28,4.13,3.86,5.07,5.4,7.81,1.94,3.46,4.91,4.79,8.56,4.97,3.41.16,5.47.84,1.91,4.54,9.25-1.44,17.98-2.57,26.6-4.28,2.4-.47,2.88.66,3.79,1.96-.14.57-.51.85-1.1.84-2.02.19-4.09-.42-6.06.42l.1-.04c-4.41,1.63-9.08-.23-13.52,1.04-10.23,1.27-19.47,5.2-28.83,9.44-9.26,4.2-17.54,9.63-25.64,15.53-1.85,1.35-3.42,3.08-5.12,4.63-1.57,2-3.45,3.68-5.46,5.22-1.14.5-2.26.82-3.28-.25-3.74-3.74-4.46-9.16-7.7-13.42-3.79,5.95-5.96,12.63-8.08,19.33-1.79,2.85-.4,6.64-3.1,9.43,5.56-4.34,10.59-8.76,15.49-13.34,1.36-1.27,3.67-2.25,3.27,1.49-5.33,6.68-10.66,13.36-15.99,20.03-1.06,1.47-2.08,2.99-3.86,3.7-.79.31-1.73.74-1.68,1.61.27,4.17-2.39,7.66-2.62,11.7.55,4.65-.96,7.99-5.86,9.16-1.89.05-2.79-1.37-3.85-2.57-1.01-4.64-.56-9.16,1.04-13.59,1.45-3.18,3.18-6.19,5.19-9.04,1.88-4.44,3.38-9,2.97-13.89-.21-2.5,1.01-4.31,1.81-6.47,3.27-8.91,9.64-16.15,12.97-24.99.23-.68.6-1.29,1.03-1.85.4-.56.82-1.12,1.18-1.71.79-1.47,1.34-3.05,1.52-4.68,1.08-9.59,6.02-17.2,12.19-24.21,1.31-1.4,2.63-2.8,3.94-4.2,1.95-.98,3.09-3.03,5.14-3.87l-.07.06c.41-.63,1.11-.8,1.73-1.08,3.94-1.96,8.39-3.08,11.22-6.86,1.1-.73,2.2-1.45,3.3-2.18.13-.1.34-.3.37-.28,2.42,2.04,5.81.51,8.31,2.24h.05Z"/>
  <path class="cls-8" d="m899.68,211.71c-5.62-5.57-12.1-9.86-19.3-13.11-5.19-7.16-12.34-9.95-20.99-9.49-1.97.11-3.95.06-5.93.03-4.25.28-7.24-1.42-8.68-5.54-.39-1.69-1.55-2.87-2.68-4.11-2.5-2.76-2.86-6.25-.08-8.39,2.32-1.79,5.17-4.97,9.1-1.89,2.77,2.18,6.69,2.27,9.51,1.32,2.82-.95,4.53-.98,6.52.94.47.45,1.14.69,1.8.83,12.36,2.5,22.66,9.1,32.61,16.39,3.15,2.45,6.46,4.73,8.81,8.06.36.56.67,1.15,1.11,1.66,3.75,4.32,5.87,8.82,5.45,15.06-.48,7.2,4.06,13.51,6.24,20.26,1.52,3.55,1.62,7.93,5.79,9.94,4.08,1.8,7.61,5.09,12.67,4.16,1.62-.3,3.11.93,4.4,2.01,1.62,1.74,3.78.73,5.67,1.07,5.32.94,8.15,6.01,5.15,10.25-2.04,2.87-6.11,2.37-9.25,3.39-2.9.94-5.64-.29-8.19-1.84-4.72-2.86-9.24-5.94-12.99-10.05-2.9-3.45-5.65-7.03-9.01-10.08-2.41-1.18-2.64-3.76-3.7-5.8,1.29-11.69-4.56-19.38-14.02-25.04v-.03Z"/>
  <path class="cls-8" d="m694.38,251.45c-1.51-.29-2.12-1.44-2.62-2.7-.4-4.49,1.58-6.26,6.12-6.09,5.31.2,10.61.81,15.93.73,3.1-.01,5.99-1.28,9.04-1.59,10.45-.82,20.56-2.81,29.55-8.64,1.2-.55,2.43-1.07,3.07-2.36,1.54-3.43,4.87-5.82,5.31-9.96.22-2.05,2.83-1.22,4.12-2.16,4.33-3.43,7.94-7.6,11.84-11.46,2.97-2.93,5.92-5.74,9.83-7.35,1.27-1.08,2.74-1.81,4.26-2.45,4.52-2.04,8.63-4.92,13.4-6.44,1.68-.45,3.11-1.43,4.64-2.2,7.72-2.97,15.73-4.75,23.87-6.03,3.03-.57,6.08-.37,9.13-.25.81.08,1.57.33,2.24.79,1.17,2.46-1.09,2.5-2.24,2.68-10.51,1.69-20.55,5.29-30.94,7.55-8.24,1.79-16.1,5.96-22.22,12.37-6.74,7.06-13.09,14.46-18.96,22.27-.59.79-.79,1.83-1.39,2.64-1.77,3.16-4.15,5.78-7.02,7.98-20.9,11.74-43.59,14.03-66.97,12.67h0Z"/>
  <path class="cls-28" d="m832.37,183.81c-7.99,2-15.98,3.99-23.97,5.99-2.02-.08-.92-.94-.42-1.65,2.8-1.38,5.75-2.61,6.32-5.89.68-.73-.68-.69-.05-.48.2.07.17.23-.09.48-3.08,2.9-4.66,2.81-5.92-1.04-.79-2.41-4.17-3.62-3.01-6.79,2.58-2.3,5.77-3.12,9.04-3.78,1.1,1.44-.72,2.68-.24,3.9-.13.83.58.3.45.12-.88-1.21,1.01-2.71-.29-3.98,16.32-6.26,32.9-9.15,49.82-2.68,9.62,3.68,19.68,6.46,28.23,12.63,3.36,2.42,6.42,5.13,9.32,8.06-6.21-3.37-12.41-6.77-18.65-10.09-4.55-2.42-9.26-4.24-14.47-4.97-2.73-.38-4.64-2.3-8.3-1.63-2.74.5-8.94,2.64-11.06-3.27-1.71,2.52-5.89.6-7.16,4.01-.98,2.63-.74,4.81,1.66,6.61,1.07.81,3.78.96,1.8,3.44-.25.41-.41.93-1.01.98h-2c-4.56-2.7-9.68-4.24-14.27-6.89.12-4.4,1.21-5.95,4.73-6.95-2.92,1.12-6.03.9-9.07,1.96-4.95,1.73-5.27,1.82-2.66,6.78.98-1.98-3.27-5.01.5-5.68,2.26-.4,5.37,1.26,6.46,4.32.17.47.16.97.1,1.47-.47,2.17-2.17,2.65-4.3,2.88,2.23.06,4.1-.39,6.01-.77,2.26-.45,3.48.41,2.5,2.93v-.02Z"/>
  <path class="cls-16" d="m844.36,183.78c.34-.33.67-.66,1.01-.98,1.7,3.22,3.7,5.95,7.99,5.02.11,1.33,1.26,2.39.97,3.82-20.35-.61-39.22,4.72-56.86,14.54-3.93,2.19-7.98,4.42-11.11,7.85-.98,1.03-1.77,2.3-3.29,2.66-1.23,1.75-3.91,1.75-4.77,3.94-.59,1.44-1.69,2.4-3.02,3.14-2.3,2.35-4.61,4.7-6.91,7.04-1.02-3.58,2.54-4.56,3.79-6.84,5.47-9.99,13.57-17.82,22.43-24.32,5.17-3.79,11.33-7.44,18.56-8.02,4.63-.37,9.14-2.17,13.7-3.34,5.84-1.5,11.68-3,17.52-4.5h-.01Z"/>
  <path class="cls-28" d="m804.38,191.81c-4.35,2.32-8.7,4.63-13.05,6.95-1.99-.63-4.21-1.7-3.97,2.03-9.13,4.25-14.19,13.21-22,18.99-.47-.53-.53-1.14-.45-1.83.21-1.85,3.99-3.85-.48-5.61-1.13-.45-1.33-2.93-.03-4.46,10.58-11.79,21.38-23.34,35.5-31.08,1.42-.78,2.64-2.07,4.46-1.93.34.74.32,1.68.92,2.25,2.24,2.12,2.58,4.16-.43,5.99,1.89,1.54,4.96.14,5.56,2.97.26,1.22-1,1.46-1.96,1.68-2.53.91-5.22,1.24-7.79,2.07,1.58.03,3.14-1.65,4.58.08.76.91-.8,1.16-.86,1.92v-.02Z"/>
  <path class="cls-16" d="m232.54,88.75c-4.91-5.77-9.92-11.45-14.72-17.32-6.43-7.86-13.65-14.97-21.59-21.2-5.6-4.4-10.85-9.23-16.24-13.81-9.15-7.77-19.79-12.97-29.59-19.57.82-1.53.61-3.85,3.12-4.1,11.67,4.55,21.32,12.22,30.94,19.95,2.37,1.97,2.22,6.86,6.99,6.07,16.08,14.69,30.19,31.01,41.09,49.96v.02Z"/>
  <path class="cls-23" d="m753.37,233.79c-8.97,6.46-19.28,8.45-30.03,8.97-1.5-1.08-2.82.13-4.2.36-3.33.55-5.09-.62-4.74-4.2,11.4-5.57,23.76-9.03,34.62-15.78,1.1-.69,2.03-1.65,3.05-2.48,2.63-1.02,3.17.74,3.34,2.67.18,1.95-.17,3.89-.52,5.81-3.13,3.4-3.06-1.97-5.35-1.83.59,1.15-.57,2.87,1.93,3.09,1.87.16,3.14,1.21,1.91,3.39h-.01Z"/>
  <path class="cls-30" d="m241.42,157.79c2.62,1.19,3.74,3.82,5.19,5.93,7.69,11.2,17.39,20.14,29.08,27,4.85,2.84,9.21,6.57,14.82,8-1.09,1.52-2.07,3.16-4.05,3.69-10.47-4-19.41-10.53-28.14-17.34-3.62-2.82-7.31-5.62-10.2-9.27-.94-.86-1.84-1.75-2.7-2.68-1.41-1.44-2.83-2.88-4.24-4.32-.89-.92-2.16-1.56-2.22-3.08-.09-2.93-.08-5.82,2.47-7.93h-.01Z"/>
  <path class="cls-17" d="m197.42,91.8c2.04.85,2.63,2.95,3.71,4.55,5.22,7.66,10.02,15.61,15.13,23.34,1.81,2.74,3.15,5.69,5.38,8.4,2.4,2.91,1.71,7.67,4.85,10.96,1.13,1.19-2.05,3.71-3.07,5.72-5.85-9.78-10.19-20.37-16.66-29.85-4.12-6.04-9.12-11.5-12.33-18.16-1.11-2.92,1.08-3.86,2.99-4.96h0Z"/>
  <path class="cls-22" d="m286.45,202.41c1.05-1.56,1.58-3.69,4.05-3.69,2.37-.64,4.52-.3,6.55,1.16,6.09,4.38,13.11,7.71,19.8,10.24,5.68,2.14,12.78,6.82,19.85,1.79,5.86-4.17,11.6-2.19,17.37.51,1.26.59,2.93.3,4.41.41-7.04,2.52-14.43,2.34-21.73,2.86-2.37-.98-4.95.1-7.34-.72-11.95-.19-22.98-4.23-34.03-8.18-2.64-1.3-5.74-1.63-7.98-3.78-.32-.2-.64-.4-.95-.6h0Z"/>
  <path class="cls-20" d="m25.45,58.81c.48,6.66-5.94,10.02-7.51,15.63-1.82,6.5-7.55,11.31-6.88,19.14.32,3.77-.42,8.74-3.63,12.21-3.46-.61-3.68-3.23-3.71-5.96,2.81-14.29,7.46-27.95,14.07-40.93,1.2-.47,3.04-1.25,3.51,0,1.41,3.8,1.94-.32,2.87-.17.44-.21.87-.17,1.29.08h-.01Z"/>
  <path class="cls-28" d="m260.63,144.65c-8.12,1.61-8.99-4.59-10.82-9.91-1.29-3.76-3-7.39-4.23-11.17-.31-.95-2.39-2.59.37-3.54.64-.22.46-1.5-.13-1.65-6.54-1.7-4.05-9.59-8.69-12.55,4.05-5.64-3.25-9.07-2.73-14.02,8.21,12.17,14.81,25.19,20.25,38.81,1.88,4.72,3.97,9.35,5.97,14.03h.01Z"/>
  <path class="cls-31" d="m922.37,234.77c-3.43-8.75-8.61-17.1-6.73-27.09.34-1.84-.38-2.5-1.33-3.7-1.69-2.15-3.71-4.24-3.95-7.23,4.32,3.23,7.23,7.66,9.75,12.26,4.65,8.48,8.98,17.13,13.45,25.71-3.73.59-7.47-1.21-11.19.05h0Z"/>
  <path class="cls-27" d="m359.36,202.81c-5.88-1.09-10.41,3.81-16.09,3.62-.97-.03-2.52.47-2.83.03-5.73-8.01-15.75-6.72-23.24-10.86-7.78-4.3-16.05-7.78-22.77-13.82.44-.79,1.19-1.01,2.02-1.1,10.14,4.69,19.66,10.62,30.32,14.32,9.77,3.39,19.42,6.91,29.94,6.88,1.03,0,1.99-.01,2.66.92h0Z"/>
  <path class="cls-30" d="m197.42,91.8c-1,1.65-1.99,3.31-2.99,4.96-4.67-5.14-9.28-10.33-14.02-15.41-2.55-2.74-5.3-5.3-7.96-7.94-.35-3.96,3.4-2.27,4.96-3.59,3.67,5.02,10.09,6.71,13.93,11.46,2.56,3.16,5.62,6.11,6.08,10.51h0Z"/>
  <path class="cls-15" d="m177.41,69.82c0,3.47-4.63.58-4.96,3.59-7.95-6.91-16.18-13.48-24.91-19.37-4.01-2.71-8.55-4.64-12.85-6.93,3.36-3.01,5.65-.93,7.84,1.64,5.11-1.61,7.84,2.67,11.03,4.96,7.8,5.61,15.75,10.96,23.85,16.11h0Z"/>
  <path class="cls-24" d="m694.38,251.45c5.03-1.44,10.21-.85,15.27-.66,9.77.36,18.91-2.74,28.3-4.42,7.01-1.26,13.86-3.3,19.99-7.25.86-.55,2.26-.24,3.42-.33-5.4,6.68-13.19,8.81-20.98,10.81-4.25,1.09-8.56,2.11-13.01,2.19-6.57,1.1-13.2.18-19.79.51-2.12.11-4.3-.49-6.37.44-2.28-.42-4.89.93-6.83-1.28h0Z"/>
  <path class="cls-18" d="m754.37,229.78c-.91-1.49-.96-2.92-.36-4.64.64-1.85.98-4-1.96-4.48,4.11-4.26,8.23-8.52,12.34-12.78-.19,1.89.7,3.49,1.33,5.14,1.86.19,1.4-2.66,3.43-2.39.91,3.95-3.59,5.7-3.8,9.15-1.58,1.22-4.52.51-3.99,4.62.26,1.98-3.82,4.46-5,7.39-1.74.4-1.83-.83-1.99-2h0Z"/>
  <path class="cls-4" d="m74.43,10.8c-3.06.07-6.23.68-8.68-1.96,9.25-4.81,19.12-7.36,29.5-8.06,1.74-.12,3.46-.51,5.19-.78,1.33.75,2.81.71,4.26.89,1.73.22,3.69.38,3.72,2.88-10.98-.37-21.46,2.7-32.12,4.57-1.54.27-1.74,1.27-1.88,2.45h.01Z"/>
  <path class="cls-27" d="m108.43,3.78c-1.81-3.05-6.22-.62-7.98-3.77,18.73-.07,36.65,3.24,53.08,12.76-1.85.75.3,4.54-3.12,4.1-12.12-10.38-26.12-14.7-41.98-13.08h0Z"/>
  <path class="cls-15" d="m854.33,191.64c-.62-1.2-2.25-2.14-.97-3.82,5.58-.16,11.13-.02,16.66.97,4.04.72,9.31,5.55,10.36,9.82-6.75-3.14-13.94-4.69-21.24-5.84-1.62-.26-3.21-.75-4.81-1.13h0Z"/>
  <path class="cls-2" d="m34.42,83.76c-.32-2.13-1.45-2.12-2.6-.76-4.82,5.71-11.46,9.42-17.05,15.85.18-5.08,1.68-9.02,2.7-13.04.39-.3.81-.81,1.23-.8,4.82.1,7.49-1.31,6.26-6.98-.39-1.78,4.49-2.86,6.68-1.32,1.33.94,2.27,2.39,3.81,3.09.72,1,1.59-.05,2.37.19.16.76.13,1.42-.78,1.68-.87.7-1.74,1.4-2.61,2.1h-.01Z"/>
  <path class="cls-23" d="m282.48,170.76c-1.2.67-2.47,1.29-3.68.2-5.66-5.06-14.04-6.87-17.31-14.91-.71-1.74-1.75-2.69-.56-4.73,1.22-2.08.45-4.53-.37-6.75.47.16,1.27.22,1.35.48,3.18,11.52,12.51,18.11,20.58,25.7h-.01Z"/>
  <path class="cls-27" d="m241.42,157.79l-2,7.99c-.48.57-.78.48-.9-.25-5.02-4.95-8.73-10.84-12.02-17.02,6.13-4.54,8.5,1.3,11.9,4.3.34,2.07-.29,4.72,3.03,4.97h-.01Z"/>
  <path class="cls-5" d="m25.45,58.81h-1.02c-2.98-.26-3.46-2.51-3.86-4.83.06-2.16,1.98-3.37,2.66-5.22l.33.1c3.28-.73,3.18-3.64,3.89-6.03,1.63-3.01,3.53-5.82,5.99-8.23,1.2-1.09,1.49-2.9,2.94-3.79,1.47-1.17,2.16-3.18,4.12-3.83.31,3.73-3.14,5.27-4.79,7.79-3.37,5.13-4.93,10.77-6.21,16.59-.42,1.92-.64,3.9-2.08,5.43-.63.05-.98.36-.98,1.02-.33.33-.67.66-1,1h0Z"/>
  <path class="cls-19" d="m946.02,249.83c-3.33-.54-6.62-.84-10.06-.79-2.21.03-4.95-2.9-7.62-4.25-.75-1.95-3.14-2.98-3-5.43.07-1.18.26-2.35,1.41-2.93.94-.48,2.35-.44,2.57.54,1.24,5.4,4.43,2.29,7.04,1.76,3.22,3.7,6.43,7.4,9.64,11.11h.02Z"/>
  <path class="cls-17" d="m899.68,211.71c6.55.62,13.33,9.58,14.47,15.01.7,3.35,1.78,6.79-.45,10.04-4.11-5.83-4.33-13.55-9.24-19.01-1.71-1.9-3.19-4.02-4.78-6.03h0Z"/>
  <path class="cls-12" d="m936.37,238.72c-5.05,4.39-5.09,4.41-7.59-.88-.34-.73-.55-1.12-1.33-.85-.93.33-.94,1.15-1.1,1.98-.47,2.35,2.64,3.43,1.99,5.81-4.31-1.95-4.9-6.13-5.97-10.02,3.72-2.53,7.45-1.91,11.19-.05.94,1.33,1.87,2.67,2.81,4h0Z"/>
  <path class="cls-23" d="m714.38,244.73c-5.21.22-10.37-.16-15.52-.93-3.9-.58-6.7.49-7.11,4.95-.97-4.31-.58-6.94,5.16-7.16,4.78-.19,9.62-1.25,14.45-1.76,1.72,1.2,3.75,2.2,3.02,4.91h0Z"/>
  <path class="cls-6" d="m808.33,186.8c.71-.15,1.91-.05,1-1.31-.57-.79-1.75,0-2.21-.29-1.34-.85-3.77,1.33-4.08-1.1-.25-1.95.74-3.92,3.91-3.24-1.61-2.14-4.65-3.09-2.59-6,.29-.14.58-.29.87-.43.96,2.85,4.01,4.3,4.44,7.83.28,2.29,2.33.57,3.71-.39.87-.61-.9-2.93,1.38-2.02,1.25.5,1.01,1.69.64,2.97-1.05,3.62-3.49,5.39-7.03,5.98-.64-.65-.59-1.32-.04-1.99h0Z"/>
  <path class="cls-21" d="m10.28,120.81c-.69-4.81,1.87-9.28,1.47-14.06,2.72.13,4.74-1.33,6.68-2.95-2.72,5.67-5.44,11.34-8.15,17.01Z"/>
  <path class="cls-23" d="m296.45,180.69c-.41.84-1.16,1.08-2.02,1.1-5.04-1.49-8.13-5-10.06-9.71,3.86,3.1,8.65,4.9,12.08,8.61h0Z"/>
  <path class="cls-25" d="m3.71,99.82c.48,2.46,1.95,4.3,3.71,5.96-1.9,2.7-2.78,6.13-5.8,8.02-.53-4.85,1.42-9.32,2.09-13.99h0Z"/>
  <path class="cls-2" d="m142.53,48.76c-2.37-1.72-4.91-2.63-7.84-1.64-1.75.08-3.35-.35-4.75-1.43-2.4-1.05-5.14.45-7.48-1.02l.13.02c-.38-.08-.54-.32-.47-.7.43-.18.87-.35,1.3-.53,4.42.3,8.85.53,13.26.92,2.78.25,5.24,1.13,5.84,4.38h0Z"/>
  <path class="cls-15" d="m917.4,242.56c3.03.3,2.94.32,3.74,3.05.18.62,1.16,1.1,1.87,1.46,2.31,1.17,3.51,2.96,3.4,5.57-4.23-2.26-7.7-5.21-9.01-10.08Z"/>
  <path class="cls-4" d="m62.46,11.02c-.17.89,1.05,2.13-.21,2.64-3.78,1.51-6.76,4.78-11.11,4.98-.09-1.57,1.37-1.95,2.18-2.84,1.05-.71,2.09-1.42,3.14-2.13,1.67-.96,3.11-2.32,5.02-2.86.33.07.66.14.99.21h-.01Z"/>
  <path class="cls-15" d="m21.31,53.55c.27,2.21,1.75,3.7,3.11,5.26-.22,1.42-.28,3.11-2.12,3.28-2.12.19-1.95-1.19-1.39-2.62-1.04-.2-2.09-.39-3.13-.59.55-1.11,1.1-2.21,1.65-3.32.86-.45.28-2.25,1.88-2.02h0Z"/>
  <path class="cls-3" d="m714.38,244.73l-3.02-4.91c.87-.75,1.84-1.18,3.02-.9,1.14,3.04,2.88,4.69,6.34,2.99.85-.42,1.95-.11,2.61.84-2.99.65-5.97,1.31-8.96,1.97h.01Z"/>
  <path class="cls-32" d="m701.21,252.73c8.65-2.14,17.43-.89,26.16-.96-3.39,2.15-7.12.77-10.67.94-5.15.25-10.32.03-15.48.01h-.01Z"/>
  <path class="cls-11" d="m191.46,38.79c-2.28,4.14-5.13.02-5.1-.59.11-2.25-2.18-3.41-1.89-5.48,2.12,2.27,5.3,3.32,6.99,6.07Z"/>
  <path class="cls-13" d="m27.45,42.83c1.36,5.44.77,6.36-3.89,6.03.61-2.45,1.9-4.47,3.89-6.03Z"/>
  <path class="cls-32" d="m287.41,203.01c2.67,1.25,5.77,1.57,7.98,3.78-3.26,0-6.25-.56-7.98-3.78Z"/>
  <path class="cls-32" d="m102.86,45.71c4.4-1.75,8.99-1,13.52-1.04-4.35,2.34-9.02.64-13.52,1.04Z"/>
  <path class="cls-32" d="m37.03,81.66c.26-.56.52-1.12.78-1.68,1.82-1.56,3.65-3.12,5.47-4.68-1.18,3.01-3.35,5.04-6.25,6.36Z"/>
  <path class="cls-32" d="m21.31,53.55c-.63.67-1.25,1.35-1.88,2.02,0-2.97,1.48-5.12,3.8-6.8-.64,1.59-1.28,3.19-1.92,4.78h0Z"/>
  <path class="cls-32" d="m49.58,18.9c-1.5,1.58-2.74,3.49-5.14,3.87,1.31-1.83,2.45-3.87,5.14-3.87Z"/>
  <path class="cls-32" d="m61.46,10.82c-1.6,1.08-2.97,2.56-5.02,2.86,1.12-1.93,2.64-3.15,5.02-2.86Z"/>
  <path class="cls-32" d="m329.42,214.96c2.46.05,5-.6,7.34.72-2.45-.16-5.02.87-7.34-.72Z"/>
  <path class="cls-32" d="m122.47,44.66c2.57-.21,5.12-.3,7.48,1.02-2.5-.24-5.23,1.15-7.48-1.02Z"/>
  <path class="cls-32" d="m122.13,43.98c.15.24.31.47.47.7-2.11,0-4.21.02-6.32.02,1.95-.24,3.9-.48,5.85-.73h0Z"/>
  <path class="cls-32" d="m36.37,30.81c-.43,1.69-1.41,2.96-2.94,3.79.4-1.71.69-3.51,2.94-3.79Z"/>
  <path class="cls-32" d="m53.31,15.81c-.73.95-1.45,1.89-2.18,2.84-.54.11-1.08.21-1.62.32.67-1.77,1.81-2.98,3.8-3.16h0Z"/>
  <path class="cls-32" d="m.58,127.4c1.28.86,2.56,1.71,3.85,2.57-2.82,1.45-3.04-1-3.85-2.57Z"/>
  <path class="cls-32" d="m238.52,165.53c.3.09.6.17.9.25.58,1.01,1.16,2.01,1.75,3.02-1.94-.23-2.78-1.36-2.65-3.27Z"/>
  <path class="cls-32" d="m245.41,173.12c1.28.51,2.23,1.35,2.7,2.68-1.63-.16-2.53-1.05-2.7-2.68Z"/>
  <path class="cls-32" d="m783.07,216.68c1.1-.89,2.2-1.77,3.29-2.66-.23,1.97-1.37,2.8-3.29,2.66Z"/>
  <path class="cls-32" d="m775.28,223.76c1.01-1.05,2.01-2.09,3.02-3.14.03,2.04-.98,3.08-3.02,3.14Z"/>
  <path class="cls-29" d="m241.43,157.77c-1.59-.34-3.66,1.12-4.67-.19-1.43-1.86,1.72-2.91,1.64-4.77,1.33,1.46,2.78,2.85,3.03,4.97h0Z"/>
  <path class="cls-7" d="m285.6,190.28c2.02.78,3.79,1.93,4.82,4.29-1.83-1.08-3.67-2.17-5.5-3.25.23-.35.45-.69.68-1.04Z"/>
  <path class="cls-16" d="m35.44,79.8c-1.68.22-2.7-.61-3.66-1.93-1.59-2.18-3.81-.51-5.47-.22-1.9.33-.2,2.17-.05,3.27.76,5.66.64,5.87-4.99,4.33-1.47-.4-2.49.71-3.8.57,2.48-6.96,4.44-14.15,9.01-20.56,4.69,3.99,5.14,10.34,8.96,14.55h0Z"/>
  <path class="cls-15" d="m26.44,57.81c-.78-.16-2-.33-1.42-1.34.62-1.09,1.68-.57,2.4.32-.33.34-.65.68-.98,1.02h0Z"/>
  <path class="cls-6" d="m832.37,183.81c-.15-.95-.71-2.67-1.27-2.17-2.77,2.48-6.3-.53-9.16,2.34.71-3.72,4.65-2.56,5.43-5.19.67-.49.3-1.51.99-1.99,5.45.76,10.22,2.88,14.01,6.97-3.33.01-6.66.03-9.99.04h-.01Z"/>
  <path class="cls-14" d="m754.37,229.78c.66.67,1.33,1.34,1.99,2-.55,1.34-1.55,2-2.99,2.01-.52-1.11.38-3.35-2.72-2-1.7.74-1.65-2.9-2.95-4.29-.79-.85.37-2.22,1.63-2.47,1.85-.37,2.78.76,2.99,2.46.16,1.31.61,2.21,2.06,2.29h-.01Z"/>
  <path class="cls-10" d="m808.33,186.8c.01.66.03,1.33.04,1.99-.73.36-.67.69.03,1.01-.8,1.76-2.3,2.11-4.03,2.01-1.19-.05,1.39-2.89-1.15-1.68-1.41.67-2.42,2.17-4.28,1.85.51-2.27,3.64-4,9.38-5.19h.01Z"/>
  <path class="cls-26" d="m787.36,200.79c-3.44-.8-1.07-2.32-.29-3.32,2.39-3.05,2.81.9,4.26,1.3-1.58.17-2.93.79-3.97,2.03h0Z"/>
  <path class="cls-29" d="m828.36,176.8c-.02.82-.2,1.56-1,1.99.37-4.39-5.11-2.18-5.54-6.08-1.97,3.61,1.45,3.58,2.17,5.2-1.14,1.18-2.25,2.33-3.82,3.96-.72-2.29-1.52-4.05-1.8-5.9-.44-2.9.15-4.15,3.76-5.53,3.72-1.42,8.68,1.41,11.55-3.81v5.05c-3.59.5-4.83,2.32-5.32,5.13h0Z"/>
  <path class="cls-29" d="m814.18,170.68c2.86.99-.19,4.47,2.36,5.59-.6.8-1.46.49-2.23.47-1.19-.04-1.85-.59-1.43-1.89.45-1.41.92-2.8,1.38-4.21l-.08.03h0Z"/>
  <path class="cls-30" d="m292.78,200.93c.37.47.63.81.9,1.14-.34.19-.72.59-1,.52-.33-.07-.58-.54-.87-.83.29-.25.59-.5.98-.84h-.01Z"/>
</svg>