<?xml version="1.0" encoding="UTF-8"?>
<svg id="Capa_1" data-name="Capa 1" xmlns="http://www.w3.org/2000/svg" viewBox="0 0 851.99 225.3">
  <defs>
    <style>
      .cls-1 {
        stroke-width: 0px;
      }
    </style>
  </defs>
  <path class="cls-1" d="m68.69.02c27.4.11,52.06,8.79,75.09,22.93,27.59,16.95,49.27,39.76,66.34,67.1,15.08,24.16,24.47,50.49,29.47,78.44.99,5.51,1.98,11.05,2.39,16.62.13,1.76-1.64,3.66-2.54,5.5-1.66-.96-4.04-1.51-4.86-2.95-2.46-4.31-4.02-9.12-6.45-13.45-13.05-23.17-30.66-42.59-50.23-60.37-21.75-19.77-45.02-37.57-70.8-51.68-21.5-11.76-43.17-23.47-67.67-28.27-10.86-2.13-21.55-2.51-32.14,1.3-2.82,1.01-6.34,1.46-6.95-2.11-.57-3.35-.61-8.7,1.4-10.28C16.43,11.23,32.84,3.1,51.86,1.41c5.61-.5,11.23-.94,16.84-1.41v.02Z"/>
  <path class="cls-1" d="m783.71,35.44c23.89-1.05,45.97,6.77,65.69,21.81,2.21,1.68,3.35,8.1,2.02,10.79-1.64,3.32-4.24,3.25-7.15,2.2-12.12-4.38-24.34-3.67-36.47-.37-32.92,8.96-62.38,25.11-90.34,44.21-24.28,16.59-46.68,35.42-66.4,57.28-13.3,14.74-25.41,30.37-32.94,49.03-.43,1.07-.78,2.46-1.62,3.03-1.42.96-3.56,2.26-4.72,1.78-1.26-.52-2.64-3.06-2.41-4.47,1.76-11.06,3.33-22.21,6-33.07,12.93-52.57,41.5-94.76,85.89-125.71,19.46-13.57,41.09-22.74,65-25.54,2.79-.33,5.57-.76,8.37-.93,2.66-.16,5.33-.03,9.09-.03h-.01Z"/>
</svg>