<?xml version="1.0" encoding="UTF-8"?>
<svg id="Capa_1" data-name="Capa 1" xmlns="http://www.w3.org/2000/svg" viewBox="0 0 797.19 141.94">
  <defs>
    <style>
      .cls-1 {
        stroke-width: 0px;
      }
    </style>
  </defs>
  <path class="cls-1" d="m117.03,14.13c29.18.82,53.38,12.41,74.21,31.63,23.18,21.38,37.01,48.29,44.54,78.6,1.08,4.36,1.12,9.01,1.3,13.53.06,1.38-.9,3.91-1.61,3.99-1.91.22-4.09-.28-5.87-1.13-.97-.46-1.42-2.16-1.95-3.37-19.2-43.15-51.34-72.04-97.1-83.47-36.14-9.03-69.05-1.43-94.53,27.87-12.23,14.06-18.99,30.79-20.95,49.29-.36,3.4-1.97,4.41-4.53,4.65-7.84.75-11.85-3.6-10.15-11.38,5.12-23.38,14.12-45.05,28.93-64.08,15.11-19.42,33.78-34.03,57.59-40.9,9.73-2.81,20.06-3.55,30.12-5.23h0Z"/>
  <path class="cls-1" d="m673.87.04c47.39.82,77.52,20.78,99.97,54.15,11.79,17.52,19.13,36.84,23.08,57.51.84,4.39-.07,7.57-5.42,7.77-1.08.04-2.1.92-3.2,1.24-3.37,1-5.68-.89-6.15-4.61-4.81-38.37-30.7-70.53-71-78.49-25.21-4.98-49.52-.14-72.41,11.48-29.14,14.8-51.1,36.85-66.01,65.9-1.51,2.95-2.51,6.16-3.9,9.17-1.33,2.89-3.75,4.87-6.72,3.15-1.36-.79-2.17-3.81-2.01-5.72,1.81-21.1,9.2-40.38,19.91-58.45,15.22-25.68,36.07-45.24,63.95-56.39,11.38-4.55,23.48-7.13,29.92-6.71h0Z"/>
</svg>