<?xml version="1.0" encoding="utf-8"?>
<!-- Generator: Adobe Illustrator 27.8.1, SVG Export Plug-In . SVG Version: 6.00 Build 0)  -->
<svg version="1.1" id="Capa_1" xmlns="http://www.w3.org/2000/svg" xmlns:xlink="http://www.w3.org/1999/xlink" x="0px" y="0px"
	 viewBox="0 0 900 220" style="enable-background:new 0 0 900 220;" xml:space="preserve">
<style type="text/css">
	.st0{fill:#1F2A3A;}
	.st1{fill:#5B8DEF;}
	.st2{fill:#F4B23A;}
	.st3{font-family:'Bauhaus93';}
	.st4{font-size:72px;}
	.st5{fill:#8A8F98;}
	.st6{font-family:'ArialMT';}
	.st7{font-size:28px;}
	.st8{letter-spacing:4;}
</style>
<path class="st0" d="M133,60h74c9.9,0,18,8.1,18,18v74c0,9.9-8.1,18-18,18h-74c-9.9,0-18-8.1-18-18V78C115,68.1,123.1,60,133,60z"/>
<path class="st1" d="M168,35h74c9.9,0,18,8.1,18,18v74c0,9.9-8.1,18-18,18h-74c-9.9,0-18-8.1-18-18V53C150,43.1,158.1,35,168,35z"/>
<ellipse class="st2" cx="210" cy="85" rx="22" ry="16"/>
<path class="st2" d="M195,95l-6,14l16-10L195,95z"/>
<circle class="st1" cx="250" cy="150" r="3"/>
<circle class="st1" cx="260" cy="160" r="2"/>
<text transform="matrix(1 0 0 1 295 115.8311)" class="st0 st3 st4">ASTUR</text>
<text transform="matrix(1 0 0 1 532 115.8311)" class="st1 st3 st4">COMIC</text>
<text transform="matrix(1 0 0 1 285 165)" class="st5 st6 st7 st8">STORYTELLING</text>
</svg>
