<?xml version="1.0" encoding="UTF-8"?>
<svg id="Capa_1" data-name="Capa 1" xmlns="http://www.w3.org/2000/svg" viewBox="0 0 182.79 167.65">
  <defs>
    <style>
      .cls-1 {
        stroke-width: 0px;
      }
    </style>
  </defs>
  <path class="cls-1" d="m49.2,136.72c-7.12-4.97-13.35-9.74-21.2-11.71-1.04-.26-1.8-1.6-2.49-2.73,4.86-.64,8.91,1.27,12.78,3.45,11.47,6.48,21.48,14.75,29.83,24.98,3.9,4.78,7.88,9.2,13.99,11.7,8.88,3.63,16.72,1.77,24.07-3.14,3.23-2.16,5.77-5.49,8.31-8.54,8.97-10.81,19.56-19.63,32.02-26.07,3.11-1.61,6.7-2.3,10.62-3.59-.42,2.93-1.39,3.71-3.45,4.27-7.37,2-13.42,6.51-19.85,11.17,4.29,2.53,8.62,3.71,13.14,4.47,7.97,1.35,14.78-1.16,20.79-6.16,6.4-5.34,9.75-12.49,11.07-20.55,1.94-11.87-.23-23.39-3.67-34.7-5.82-19.14-15.12-36.62-26.16-53.19-5.06-7.6-10.64-14.86-15.94-22.3-.5-.7-1.01-1.6-1.01-2.4,0-1.57.99-2.16,2.35-1.25.8.54,1.42,1.39,2.03,2.17,13.6,17.66,25.68,36.26,34.83,56.64,5.05,11.26,9.06,22.91,10.7,35.18,1.53,11.41,1.38,22.77-4.34,33.29-4.41,8.11-11.21,13.71-19.93,16.17-5.99,1.69-12.35.74-18.35-1.3-2.3-.79-4.61-1.67-6.75-2.81-1.51-.81-2.37-.48-3.51.58-5.69,5.23-11.01,10.71-15.54,17.05-3.08,4.31-8.03,6.57-12.95,8.43-12.09,4.56-22.16.01-31.04-7.72-3.89-3.39-6.59-8.12-10.03-12.07-1.9-2.18-4.12-4.11-6.36-5.94-.61-.5-2.04-.68-2.72-.31-5.96,3.18-12.4,4.64-19.01,4.86-7.16.23-13.29-2.85-18.64-7.45C4.12,129.75.63,119.92.09,108.85c-.79-16.3,3.76-31.5,9.95-46.29,7.57-18.07,17.74-34.67,29.21-50.51,2.5-3.45,4.99-6.93,7.69-10.22.66-.81,2.14-.95,3.25-1.4-.18,1.22.04,2.7-.59,3.61-6.57,9.54-13.7,18.72-19.85,28.52-10.95,17.46-20.2,35.78-24.59,56.16-2.28,10.6-3.23,21.21.28,31.78,3.14,9.44,9.27,16.12,18.53,19.61,6.05,2.28,12.24,1.32,18.25-.66,2.12-.7,4.17-1.6,6.97-2.7v-.03Z"/>
</svg>