<?xml version="1.0" encoding="UTF-8"?>
<svg id="Capa_1" data-name="Capa 1" xmlns="http://www.w3.org/2000/svg" viewBox="0 0 79.34 61.39">
  <defs>
    <style>
      .cls-1 {
        stroke-width: 0px;
      }
    </style>
  </defs>
  <path class="cls-1" d="m65.23,34.67c0,.91.22,1.89-.07,2.7-.25.71-1.07,1.21-1.63,1.81-.45-.66-1.25-1.3-1.28-1.98-.34-8.95-2.05-17.62-5.04-26.04-1.12-3.13-2.05-6.41-5.07-8.47-.4-.27-.63-1.41-.39-1.84.26-.46,1.4-.97,1.74-.76,1.26.77,2.92,1.6,3.4,2.81,2.42,6.13,4.82,12.29,6.63,18.62,1.21,4.22,1.42,8.73,2.09,13.11-.12.01-.24.03-.37.04h0Z"/>
  <path class="cls-1" d="m25.83,0c.83.53,1.56.74,1.76,1.19.21.47.13,1.47-.21,1.72-4.58,3.36-5.61,8.61-6.75,13.54-1.58,6.84-2.4,13.86-3.63,20.78-.15.82-.82,1.54-1.26,2.3-.54-.79-1.51-1.56-1.55-2.37-.44-9.01,1.64-17.62,4.59-26.03,1.04-2.97,2.51-5.81,4.06-8.56.59-1.05,1.93-1.69,3-2.57h-.01Z"/>
  <path class="cls-1" d="m0,47.71c.17-4.76,2.45-9.21,6.7-12.66.56-.45,1.21-1.01,1.86-1.06.88-.07,1.79.3,2.68.49-.39.79-.58,1.92-1.22,2.32-3.01,1.9-4.9,4.57-5.78,7.94-1.34,5.16-.54,9.84,3.27,13.86.61.64.66,1.81.97,2.74-1.07-.16-2.48.06-3.14-.54C1.75,57.52.11,53.28,0,47.71h0Z"/>
  <path class="cls-1" d="m79.34,48.46c-.13,4.13-1.55,7.77-4.23,10.91-.47.55-.94,1.28-1.55,1.47-.83.26-1.8.07-2.72.07.24-.85.36-1.77.75-2.54,1.2-2.37,3.09-4.55,3.64-7.05,1.34-6.09-.65-11.17-5.92-14.84-.65-.45-.87-1.52-1.29-2.31.96-.17,2.15-.8,2.83-.45,4.63,2.43,7.12,6.51,8.18,11.52.22,1.04.21,2.14.3,3.21h.01Z"/>
  <path class="cls-1" d="m61.84,51.03c1.43.3,3.14.52,4.75,1.05.59.19.93,1.12,1.38,1.72-.68.35-1.35,1-2.03,1-1.71,0-3.42-.48-5.13-.42-5.02.16-9.7,1.12-12.79,5.78-.4.61-1.9.49-2.9.71.04-.97-.28-2.21.19-2.88,2.42-3.46,6.11-5.05,10.03-6.05,2-.51,4.11-.59,6.49-.91h.01Z"/>
  <path class="cls-1" d="m18.11,51.71c5.82.02,11.18,1.41,15.25,5.85.74.8,1.29,3.08.93,3.35-1.49,1.13-2.48.09-3.65-1.26-3.99-4.58-9.35-5.39-15.11-4.92-1.35.11-2.74-.38-4.12-.59,1.23-.81,2.39-1.8,3.73-2.36.85-.36,1.97-.07,2.97-.07h0Z"/>
</svg>