<?xml version="1.0" encoding="UTF-8"?>
<svg id="Capa_1" data-name="Capa 1" xmlns="http://www.w3.org/2000/svg" viewBox="0 0 108.62 101.66">
  <defs>
    <style>
      .cls-1 {
        stroke-width: 0px;
      }
    </style>
  </defs>
  <path class="cls-1" d="m33.97,8.02c-.07-1.42-.34-3.6-.2-5.75.06-.83.97-2.11,1.67-2.25.75-.15,2.07.6,2.52,1.34.57.93.66,2.24.72,3.4.78,14.6-2.02,28.53-8.66,41.53-2.06,4.04-5.29,7.5-8.1,11.13-1.22,1.58-3.08,1.88-4.47.42-1.57-1.64-.8-3.04.91-4.48,4.93-4.16,7.59-9.86,9.95-15.7,3.74-9.26,5.78-18.85,5.65-29.63h.01Z"/>
  <path class="cls-1" d="m74.54,10.15c.23,13.37,3.54,26.66,11.25,38.66,1.3,2.02,3.1,3.78,4.89,5.41,1.42,1.29,1.73,2.59.61,3.98-1.26,1.56-3.09,1.46-4.24.09-2.9-3.44-6.05-6.83-8.19-10.74-4.65-8.49-7.27-17.76-8.4-27.36-.57-4.84-.47-9.76-.55-14.64-.02-1.24.14-2.63.73-3.67.41-.73,1.77-1.47,2.53-1.31.71.15,1.6,1.44,1.65,2.27.14,2.15-.13,4.34-.27,7.31h-.01Z"/>
  <path class="cls-1" d="m0,76.52c.7-5.59,1.01-11.36,5.89-15.02,2.03-1.52,4.84-2.1,7.39-2.78,1.59-.43,2.52.62,2.54,2.33.02,1.58-.4,2.46-2.31,2.51-3.33.1-6.44,3.09-7.5,6.84-2.7,9.53.33,17.74,5.92,25.34.16.22.52.36.56.58.26,1.39,1.13,3.39.53,4.05-1.24,1.37-2.94.66-4.16-.8-4.53-5.41-7.25-11.61-8.22-18.58-.21-1.51-.43-3.02-.64-4.47h0Z"/>
  <path class="cls-1" d="m108.62,75.81c-.77,9.74-3.15,17.45-8.66,24.03-1.26,1.51-2.86,2.56-4.37,1.17-1.51-1.4-.35-3,.79-4.47,5.61-7.21,8.73-15.19,6.48-24.44-1.06-4.36-3.27-7.84-8.5-8.16-.57-.04-1.62-1.61-1.46-2.21.25-.95,1.23-2.28,2.07-2.42,4.34-.71,9.63,2.73,11.37,7.56,1.18,3.28,1.74,6.78,2.27,8.95h0Z"/>
  <path class="cls-1" d="m51.48,96.22c-3.09.48-5.35.36-7.73-1.52-5.32-4.2-11.47-6.79-18.29-7.43-1.13-.11-2.35.12-3.44.47-2.09.68-3.31-.28-3.59-2.1-.31-1.98,1.06-2.84,2.96-2.99,5.9-.46,11.43.82,16.81,3.22,4.77,2.12,9.04,4.85,12.37,8.91.27.33.47.73.91,1.43h0Z"/>
  <path class="cls-1" d="m57.39,96.15c3.73-4.83,8.23-7.66,13.27-9.85,5.14-2.24,10.41-3.54,16.06-3.1,2.61.2,3.9,1.2,3.45,3.07-.51,2.1-1.9,2.42-3.96,1.97-6.05-1.32-11.29,1.36-16.52,3.82-1.38.65-2.79,1.41-3.9,2.43-2.36,2.16-5.07,1.99-8.39,1.66h-.01Z"/>
</svg>