<?xml version="1.0" encoding="UTF-8"?>
<svg id="Capa_1" data-name="Capa 1" xmlns="http://www.w3.org/2000/svg" viewBox="0 0 1855 1780">
  <defs>
    <style>
      .cls-1, .cls-2 {
        stroke-width: 0px;
      }

      .cls-2 {
        fill: #fff;
      }
    </style>
  </defs>
  <path class="cls-1" d="m390.24,1025.03c-7.42-15.43-14.92-30.22-21.73-45.33-15.1-33.53-25.93-68.52-33.24-104.5-3.3-16.23-4.92-32.8-7.23-49.22-3.46-24.6-3.6-49.36-2.9-74.09.85-29.92,4.63-59.53,10.45-88.93,5.47-27.64,13.14-54.61,22.68-81.07,13.24-36.74,30.26-71.71,50.73-104.96,22.5-36.54,48.88-70.07,78.59-101.02,22.31-23.24,46.49-44.36,72.23-63.65,36.45-27.31,75.64-49.96,117.24-68.58,36.69-16.43,74.75-28.57,113.85-37.41,15.97-3.61,32.32-5.59,48.51-8.24,26.16-4.27,52.55-5.33,79-5.37,22.12-.03,44.26-.35,66.34.56,15.93.66,31.79,3.07,47.68,4.81,25.7,2.82,50.88,8.38,75.84,14.99,39.07,10.34,76.64,24.69,112.69,42.9,30.31,15.32,59.28,32.86,86.66,53.08,33.05,24.41,63.5,51.62,90.98,82.17,35.92,39.94,66.04,83.8,89.95,131.96,14.54,29.28,26.5,59.58,35.85,90.85,7.52,25.17,12.82,50.87,16.84,76.9,5.25,34,7.02,68.17,5.4,102.38-1.07,22.64-4.71,45.18-7.71,67.7-3.72,27.86-11.48,54.79-20.64,81.27-9.72,28.1-21.75,55.22-36.43,81.12-.15.27-.19.61-.37,1.19,5.86.51,11.67.92,17.45,1.54,15,1.6,27.59,8.63,38.28,18.69,19.51,18.36,29.82,41.81,34.52,67.71,2.27,12.53,4.14,25.4,3.87,38.06-.92,43.54-11.76,84.18-39.36,118.95-12.18,15.35-27.05,27.45-45.97,33.91-16.01,5.47-31.92,4.72-47.8-.41-5.99,8.68-11.67,17.47-17.9,25.84-25.59,34.35-56.75,63.07-90.87,88.68-38.45,28.86-79.69,53-123.12,73.65-48.77,23.2-99.35,41.12-151.86,53.4-21.26,4.97-43.08,7.46-64.58,11.47-26.81,5-53.9,4.73-80.87,3.66-19.57-.78-39.1-3.93-58.51-6.94-43.07-6.68-84.91-18.37-125.83-33.17-34.72-12.56-68.4-27.63-100.97-45.11-48.16-25.85-93.26-56.1-133.36-93.41-24.35-22.65-46.24-47.45-63.37-76.15-.41-.69-.97-1.28-1.51-1.97-13.51,4.28-27,5.67-40.8,2.47-17.42-4.04-31.71-13.35-44.14-25.84-20.61-20.68-32.92-45.99-40.75-73.73-6.7-23.75-9.09-48.02-6.97-72.58,2.49-28.81,10.23-55.89,28.79-78.89,15.89-19.69,36.17-30.24,61.85-29.34.82.03,1.64,0,2.49,0Zm1146.59-252.98h.13c0-10.14.75-20.35-.16-30.41-1.87-20.82-3.81-41.69-7.18-62.3-7.81-47.7-22.8-93.29-43.03-137.14-12.14-26.29-25.76-51.84-42.63-75.44-14.29-20.01-28.53-40.15-44.28-58.99-19.84-23.73-42.02-45.34-65.77-65.3-25-21.01-51.33-40.1-79.32-56.93-39.23-23.58-80.64-42.3-124.18-56.39-38.14-12.35-77.22-20.35-117-24.86-15.46-1.75-31.06-2.54-46.62-3-16.71-.5-33.47-.6-50.18.04-21,.79-41.99,2.18-62.93,3.94-12.61,1.06-25.3,2.53-37.65,5.2-21.46,4.63-42.81,9.91-64,15.69-31.85,8.69-62.25,21.39-91.81,35.95-42.23,20.81-81.4,46.42-117.65,76.51-28.24,23.44-54.12,49.26-77.47,77.51-27.3,33.03-50.87,68.6-70.31,106.87-14.12,27.8-25.88,56.54-35.43,86.18-8.42,26.14-15.06,52.81-18.67,80.02-3.1,23.35-5.16,46.9-6.35,70.43-1.31,26,0,52.05,3.86,77.84,2.4,16.08,5.09,32.14,8.56,48.02,6.23,28.47,15.27,56.1,26.6,82.96,11.05,26.19,24.27,51.23,39.4,75.32,4.05,6.45,7.13,13.82,9.1,21.19,2.58,9.62,3.28,19.72,5.4,29.48,3.19,14.7,1.42,29.46.39,44.06-1.08,15.3-4.48,30.44-6.72,45.66-1.71,11.63-3.46,23.27-4.68,34.96-.8,7.71-2.18,15.82-.68,23.21,4.4,21.7,13,41.82,24.97,60.64,20.47,32.19,46.18,59.63,74.87,84.42,34.62,29.92,72.32,55.5,112.86,76.59,26.03,13.55,52.69,26.03,79.71,37.46,21.19,8.96,43.08,16.57,65.19,22.96,24.78,7.15,49.96,13.3,75.32,17.94,22.92,4.19,46.27,6.47,69.54,8.23,14.36,1.09,28.98.43,43.36-.86,22.58-2.03,45.24-4.22,67.54-8.2,38.55-6.87,76.09-17.88,112.87-31.36,29.33-10.75,58.19-22.7,85.65-37.54,25.56-13.82,50.73-28.5,75.18-44.17,24.51-15.71,47.33-33.94,68.43-54.07,28.61-27.29,55.02-56.4,71.89-92.83,8.66-18.69,16.5-37.42,13-59.01-2.4-14.81-2.91-29.92-4.94-44.81-1.69-12.33-4.96-24.46-6.43-36.81-1.33-11.18-2.2-22.62-1.43-33.81.97-14.03,2.05-28.24,6.73-41.74,2.16-6.22,3.41-13.11,6.98-18.43,18.66-27.85,33.52-57.62,45.85-88.67,11.17-28.12,20.19-56.96,25.28-86.84,3.42-20.07,6.58-40.24,8.59-60.48,1.28-12.84.24-25.91.24-38.87ZM424.32,1294.57c-4.23-10.15-9.01-19.53-12.06-29.45-3.32-10.81-7.35-22.19-6.98-33.18.69-20.78,3.6-41.57,6.89-62.14,3.12-19.55,6.42-39.02,6.47-58.87.02-8.16.14-16.43-1.1-24.45-2.67-17.15-8.32-33.36-18.78-47.48-1.57-2.12-4.5-4.27-6.98-4.52-8.42-.84-16.88-.67-25.08,2.22-16.39,5.78-28.67,16.76-37.98,30.96-20.92,31.89-25.68,67.59-22.2,104.55,2.09,22.27,8.51,43.66,18.65,63.8,10.58,21.02,24.3,39.3,44.72,51.72,16.99,10.34,35.01,13.49,54.45,6.82Zm1024.21.19c10.99,4.23,22.91,4.41,34.85,1.13,19.58-5.38,34.56-17.62,46.71-33.28,24.4-31.45,35.18-67.86,36.45-107.13.63-19.63-2.2-39.07-8.59-57.81-6.95-20.38-17.46-38.38-34.97-51.61-12.5-9.44-26.58-13.27-42.14-11.81-3.91.37-6.25,2.48-8.52,5.77-9.6,13.91-14.89,29.43-17.75,45.86-1.12,6.45-1.87,13.03-1.98,19.56-.1,5.76,1.05,11.53,1.44,17.31.36,5.3,0,10.68.72,15.92,1.96,14.42,4.35,28.79,6.51,43.18,1.53,10.18,3.23,20.34,4.35,30.57,1.4,12.83,2.7,25.8-1.52,38.36-4.89,14.55-10.22,28.96-15.55,43.96Z"/>
  <path class="cls-2" d="m1536.83,772.05c0,12.96,1.04,26.03-.24,38.87-2.01,20.25-5.18,40.41-8.59,60.48-5.09,29.88-14.11,58.72-25.28,86.84-12.33,31.05-27.19,60.82-45.85,88.67-3.56,5.32-4.82,12.21-6.98,18.43-4.68,13.51-5.76,27.71-6.73,41.74-.78,11.2.09,22.63,1.43,33.81,1.47,12.35,4.75,24.47,6.43,36.81,2.03,14.89,2.54,30,4.94,44.81,3.5,21.59-4.35,40.32-13,59.01-16.87,36.43-43.28,65.54-71.89,92.83-21.1,20.13-43.92,38.35-68.43,54.07-24.46,15.68-49.62,30.35-75.18,44.17-27.45,14.84-56.32,26.8-85.65,37.54-36.79,13.48-74.32,24.48-112.87,31.36-22.3,3.98-44.96,6.17-67.54,8.2-14.38,1.29-29,1.95-43.36.86-23.26-1.76-46.61-4.04-69.54-8.23-25.36-4.64-50.54-10.78-75.32-17.94-22.11-6.38-44-14-65.19-22.96-27.02-11.43-53.68-23.91-79.71-37.46-40.53-21.09-78.24-46.67-112.86-76.59-28.69-24.79-54.4-52.23-74.87-84.42-11.97-18.82-20.57-38.94-24.97-60.64-1.5-7.4-.12-15.51.68-23.21,1.21-11.69,2.97-23.33,4.68-34.96,2.24-15.23,5.64-30.36,6.72-45.66,1.03-14.59,2.8-29.36-.39-44.06-2.12-9.76-2.82-19.86-5.4-29.48-1.98-7.37-5.05-14.74-9.1-21.19-15.13-24.09-28.35-49.13-39.4-75.32-11.33-26.86-20.37-54.5-26.6-82.96-3.47-15.87-6.16-31.94-8.56-48.02-3.85-25.8-5.17-51.84-3.86-77.84,1.19-23.53,3.25-47.08,6.35-70.43,3.62-27.2,10.25-53.87,18.67-80.02,9.55-29.64,21.31-58.38,35.43-86.18,19.45-38.28,43.01-73.84,70.31-106.87,23.35-28.25,49.23-54.07,77.47-77.51,36.25-30.08,75.41-55.69,117.65-76.51,29.56-14.57,59.95-27.26,91.81-35.95,21.19-5.78,42.53-11.06,64-15.69,12.35-2.67,25.04-4.14,37.65-5.2,20.94-1.76,41.93-3.15,62.93-3.94,16.7-.63,33.46-.53,50.18-.04,15.56.46,31.16,1.25,46.62,3,39.77,4.51,78.86,12.52,117,24.86,43.53,14.09,84.95,32.81,124.18,56.39,27.99,16.83,54.32,35.92,79.32,56.93,23.75,19.96,45.92,41.57,65.77,65.3,15.75,18.84,29.99,38.99,44.28,58.99,16.86,23.6,30.49,49.15,42.63,75.44,20.23,43.84,35.22,89.44,43.03,137.14,3.37,20.61,5.31,41.48,7.18,62.3.91,10.06.16,20.27.16,30.41h-.13Z"/>
  <path class="cls-2" d="m424.32,1294.57c-19.44,6.67-37.46,3.52-54.45-6.82-20.41-12.42-34.13-30.71-44.72-51.72-10.14-20.14-16.56-41.54-18.65-63.8-3.48-36.96,1.28-72.66,22.2-104.55,9.32-14.2,21.59-25.18,37.98-30.96,8.2-2.89,16.66-3.07,25.08-2.22,2.49.25,5.41,2.39,6.98,4.52,10.46,14.12,16.12,30.33,18.78,47.48,1.25,8.02,1.12,16.29,1.1,24.45-.05,19.84-3.34,39.31-6.47,58.87-3.29,20.58-6.2,41.37-6.89,62.14-.36,10.99,3.66,22.37,6.98,33.18,3.05,9.91,7.82,19.3,12.06,29.45Z"/>
  <path class="cls-2" d="m1448.53,1294.76c5.33-15.01,10.66-29.41,15.55-43.96,4.22-12.57,2.92-25.53,1.52-38.36-1.12-10.23-2.83-20.39-4.35-30.57-2.16-14.4-4.55-28.76-6.51-43.18-.71-5.24-.36-10.62-.72-15.92-.39-5.78-1.53-11.55-1.44-17.31.11-6.53.85-13.12,1.98-19.56,2.87-16.43,8.15-31.95,17.75-45.86,2.27-3.28,4.61-5.4,8.52-5.77,15.56-1.46,29.65,2.37,42.14,11.81,17.51,13.23,28.02,31.23,34.97,51.61,6.39,18.74,9.23,38.18,8.59,57.81-1.27,39.27-12.05,75.68-36.45,107.13-12.15,15.65-27.13,27.9-46.71,33.28-11.94,3.28-23.86,3.09-34.85-1.13Z"/>
</svg>