<?xml version="1.0" encoding="UTF-8"?>
<svg id="Capa_1" data-name="Capa 1" xmlns="http://www.w3.org/2000/svg" viewBox="0 0 1855 1780">
  <defs>
    <style>
      .cls-1, .cls-2, .cls-3 {
        stroke-width: 0px;
      }

      .cls-2 {
        fill: none;
      }

      .cls-3 {
        fill: #fff;
      }
    </style>
  </defs>
  <path class="cls-2" d="m1855,1780H0C0,1186.67,0,593.33,0,0,618.33,0,1236.67,0,1855,0v1780ZM326.88,799.94c-2.34,9.54-4.82,18.5-6.7,27.58-6.34,30.54-11.98,61.21-14.24,92.38-1.33,18.36-3.07,36.71-3.72,55.09-.48,13.6.18,27.27.9,40.87,1.01,19.02,1.83,38.09,4.06,56.99,2.61,22.12,5.83,44.23,10.25,66.04,6.47,31.96,15.73,63.19,27.02,93.86,16.37,44.5,37.22,86.76,62.79,126.6,27.35,42.61,59.46,81.34,96.26,116.26,36.52,34.66,76.6,64.35,120.13,89.49,28.65,16.55,58.45,30.75,89.37,42.51,14.23,5.41,28.58,10.66,43.18,14.92,18.36,5.37,36.92,10.25,55.62,14.24,19.18,4.09,38.59,7.2,58,10,7.4,1.06,14.69,2.74,22.46,2.61,13.03-.22,26.14,2.74,39.15,2.33,16.51-.52,33.03-2.52,49.4-4.9,19.89-2.89,39.77-6.21,59.41-10.48,26.97-5.87,53.38-13.84,79.39-23.22,36.96-13.32,72.3-29.91,106.23-49.7,44.92-26.2,85.87-57.49,123.03-93.86,47.88-46.87,87.02-100.16,117.99-159.49,17.24-33.03,32.1-67.14,42.66-102.88,7.62-25.81,14.6-51.88,20.15-78.2,4.46-21.12,6.91-42.72,9.21-64.22,2.08-19.42,3.22-38.98,3.91-58.5.48-13.6-.09-27.28-.91-40.89-1.29-21.35-2.81-42.69-4.94-63.97-2.81-28.09-7.93-55.82-14.79-83.23-1.39-5.56-2.5-11.19-3.84-17.22,4.2,0,7.86-.17,11.5.03,13.48.73,25.45-3.81,36.75-10.51,17.59-10.44,29.86-25.83,39.34-43.55,16.89-31.56,22.95-65.83,23.9-101.11.36-13.24-.43-26.63-2.05-39.78-2.9-23.61-8.21-46.72-16.99-68.98-11.57-29.33-27.1-56-51.18-76.9-17.47-15.16-37.48-24.9-61.12-23.87-9.87.43-19.63,3.31-29.42,5.07,0-.73-.13-2.71.02-4.67,1.24-15.65,3.31-31.29,3.57-46.95.21-13.21-1.25-26.5-2.72-39.68-2.96-26.56-9.82-52.11-20.39-76.74-13.7-31.94-32.79-60.08-57.68-84.25-40.55-39.36-89.36-62.84-144.35-73.97-11.97-2.42-24.21-3.63-36.37-4.96-9.54-1.05-19.14-1.61-28.73-2.04-7.39-.33-14.83.24-22.2-.22-17.19-1.08-34.36-2.58-51.54-3.85-14.04-1.04-28.09-2.03-42.15-2.97-20.34-1.37-40.69-2.67-61.04-4.01-15.05-.99-30.09-2.72-45.14-2.8-18.7-.09-37.15-4.59-55.99-2.28-11.66,1.43-23.48,1.43-35.22,2.27-21.31,1.53-42.61,3.25-63.92,4.8-14.88,1.08-29.76,2.03-44.65,3-20.84,1.35-41.68,2.8-62.53,3.95-16.32.89-32.69.97-48.98,2.17-16.16,1.19-32.43,2.33-48.32,5.3-28.32,5.29-55.54,14.23-81.33,27.46-30.87,15.84-57.88,36.46-80.78,62.49-21.58,24.53-37.83,52.31-48.64,83.03-5.11,14.51-9.02,29.58-11.81,44.71-2.79,15.11-4.05,30.56-4.99,45.92-.77,12.54-.09,25.17-.02,37.76,0,.81.35,1.61.44,2.43.9,8.11,1.77,16.22,2.7,24.68-20.75-8.56-32.78-8.09-47.67-5.07-25.6,5.19-44.75,20.75-60.74,40.23-23.14,28.18-37.07,60.95-44.94,96.34-6,26.99-9.04,54.19-7.08,82,1.33,18.93,3.97,37.48,9.25,55.66,7.06,24.27,17.71,46.63,35.94,64.66,15.58,15.41,33.69,25.22,56.39,24.21,2.98-.13,5.96-.02,9.47-.02Z"/>
  <path class="cls-1" d="m315.88,792.94c-3.51,0-6.49-.11-9.47.02-22.7,1.01-40.81-8.8-56.39-24.21-18.23-18.03-28.88-40.39-35.94-64.66-5.28-18.18-7.92-36.73-9.25-55.66-1.96-27.81,1.08-55.01,7.08-82,7.87-35.39,21.8-68.16,44.94-96.34,16-19.48,35.15-35.05,60.74-40.23,14.89-3.02,26.92-3.49,47.67,5.07-.92-8.46-1.8-16.58-2.7-24.68-.09-.82-.43-1.62-.44-2.43-.07-12.59-.75-25.22.02-37.76.94-15.36,2.2-30.82,4.99-45.92,2.8-15.12,6.71-30.2,11.81-44.71,10.81-30.72,27.06-58.5,48.64-83.03,22.9-26.03,49.92-46.66,80.78-62.49,25.79-13.23,53.02-22.17,81.33-27.46,15.89-2.97,32.16-4.1,48.32-5.3,16.29-1.2,32.66-1.28,48.98-2.17,20.85-1.14,41.69-2.59,62.53-3.95,14.88-.97,29.77-1.92,44.65-3,21.31-1.55,42.61-3.27,63.92-4.8,11.74-.84,23.56-.84,35.22-2.27,18.84-2.31,37.29,2.19,55.99,2.28,15.05.08,30.1,1.81,45.14,2.8,20.35,1.34,40.69,2.64,61.04,4.01,14.05.94,28.1,1.93,42.15,2.97,17.18,1.27,34.35,2.77,51.54,3.85,7.38.46,14.81-.11,22.2.22,9.59.43,19.19,1,28.73,2.04,12.16,1.33,24.4,2.54,36.37,4.96,54.99,11.13,103.8,34.6,144.35,73.97,24.9,24.17,43.99,52.31,57.68,84.25,10.57,24.63,17.42,50.18,20.39,76.74,1.47,13.17,2.93,26.47,2.72,39.68-.25,15.66-2.33,31.3-3.57,46.95-.16,1.96-.02,3.95-.02,4.67,9.8-1.76,19.56-4.64,29.42-5.07,23.65-1.04,43.65,8.71,61.12,23.87,24.08,20.89,39.6,47.57,51.18,76.9,8.78,22.25,14.09,45.37,16.99,68.98,1.62,13.15,2.41,26.54,2.05,39.78-.96,35.28-7.02,69.56-23.9,101.11-9.48,17.72-21.74,33.12-39.34,43.55-11.3,6.7-23.27,11.24-36.75,10.51-3.64-.2-7.31-.03-11.5-.03,1.34,6.03,2.45,11.66,3.84,17.22,6.86,27.4,11.98,55.13,14.79,83.23,2.13,21.28,3.65,42.62,4.94,63.97.82,13.6,1.39,27.28.91,40.89-.69,19.53-1.83,39.08-3.91,58.5-2.31,21.5-4.76,43.1-9.21,64.22-5.55,26.32-12.53,52.39-20.15,78.2-10.56,35.74-25.42,69.85-42.66,102.88-30.97,59.33-70.1,112.63-117.99,159.49-37.16,36.37-78.1,67.67-123.03,93.86-33.93,19.79-69.27,36.37-106.23,49.7-26.01,9.38-52.42,17.35-79.39,23.22-19.64,4.27-39.52,7.59-59.41,10.48-16.37,2.38-32.9,4.38-49.4,4.9-13.01.41-26.11-2.55-39.15-2.33-7.77.13-15.06-1.54-22.46-2.61-19.42-2.79-38.83-5.91-58-10-18.71-3.99-37.26-8.87-55.62-14.24-14.6-4.27-28.95-9.51-43.18-14.92-30.92-11.77-60.71-25.97-89.37-42.51-43.53-25.14-83.62-54.84-120.13-89.49-36.8-34.92-68.91-73.65-96.26-116.26-25.58-39.84-46.42-82.1-62.79-126.6-11.28-30.66-20.55-61.89-27.02-93.86-4.42-21.82-7.64-43.93-10.25-66.04-2.23-18.89-3.05-37.97-4.06-56.99-.72-13.61-1.38-27.27-.9-40.87.65-18.39,2.39-36.73,3.72-55.09,2.26-31.18,7.91-61.84,14.24-92.38,1.88-9.08,4.37-18.04,6.7-27.58Zm1137.87-408.37c-.2-.04-.39-.08-.59-.12-.45-6.96-.81-13.92-1.36-20.87-.64-8.09-.96-16.25-2.28-24.24-3.21-19.36-8.05-38.3-14.99-56.73-11.87-31.54-29.12-59.67-52.03-84.35-15.24-16.42-32.27-30.76-51.25-42.61-19.51-12.17-40.18-21.97-62.18-29.01-30.53-9.78-61.54-15.89-93.77-15.59-13.26.12-26.54-1.15-39.8-1.99-19.2-1.21-38.38-2.61-57.57-3.89-11.09-.74-22.19-1.34-33.28-2.14-16.7-1.22-33.38-2.67-50.08-3.82-12.76-.87-25.53-1.41-38.3-2.13-5.8-.33-11.59-.82-17.39-1.1-14.04-.68-28.11-2.1-42.12-1.7-20.55.58-41.07,2.47-61.6,3.84-14.39.96-28.77,2.09-43.17,2.98-23.02,1.42-46.05,2.69-69.08,4.04-5.8.34-11.6.68-17.39,1.09-18.03,1.29-36.06,2.74-54.1,3.88-9.54.6-19.24-.18-28.64,1.2-18.2,2.67-36.5,5.42-54.3,9.95-29.33,7.47-56.6,20.06-81.93,36.83-18.72,12.39-35.56,26.97-50.32,43.7-21.09,23.9-37.06,50.96-48.22,80.99-11.54,31.03-16.92,63.07-17.75,95.97-.25,9.94.21,19.94,1.03,29.86.76,9.2,2.29,18.35,3.8,27.47.57,3.45,2.32,6.69,2.98,10.13,1.48,7.7,1.63,15.81,4.11,23.14,4.46,13.17,6.74,26.54,6.96,40.32.17,10.88.53,21.79-.08,32.64-.99,17.87-1.8,35.83-4.32,53.52-3.15,22.13-7.23,44.13-15.49,65.19-4.65,11.87-7.52,24.43-11.71,36.5-4.63,13.35-10.1,26.4-14.72,39.75-4.51,13.03-8.87,26.14-12.46,39.45-5.45,20.2-11.08,40.42-14.98,60.95-4.69,24.7-8.16,49.66-11.16,74.63-2.19,18.25-3.64,36.68-3.85,55.05-.25,23.06,1,46.15,1.83,69.22.33,9.08.85,18.21,2.08,27.2,2.28,16.66,4.37,33.41,7.96,49.82,5.71,26.12,11.38,52.35,19.29,77.84,7.59,24.46,17.01,48.49,27.47,71.89,10.34,23.14,22.06,45.79,34.82,67.69,17.84,30.61,38.78,59.15,62.03,86,24.57,28.38,51.36,54.43,80.54,77.99,35.04,28.29,72.55,52.96,113.19,72.33,24.78,11.82,50.32,22.23,76.11,31.67,20.61,7.54,41.87,13.74,63.29,18.57,24.74,5.58,49.9,9.51,75.02,13.2,17.15,2.52,34.51,3.88,51.82,4.84,8.68.48,17.51-.77,26.2-1.84,20.32-2.49,40.71-4.66,60.84-8.26,18.01-3.22,35.81-7.79,53.52-12.46,36.45-9.62,71.67-22.81,105.7-38.99,45.81-21.78,88.43-48.65,127.73-80.82,35.83-29.32,68.37-61.85,96.31-98.72,15.42-20.35,30.23-41.34,43.32-63.24,13.09-21.89,24.48-44.9,35.13-68.1,9.17-19.99,17.22-40.63,23.99-61.55,7.47-23.08,13.93-46.6,18.95-70.32,4.98-23.52,8.33-47.45,11.11-71.34,2.35-20.19,3.36-40.59,4.03-60.92.5-15.28-.23-30.61-.91-45.9-.68-15.23-1.35-30.51-3.17-45.63-2.3-19.22-4.86-38.49-8.91-57.39-6.02-28.06-12.44-56.1-20.56-83.61-8.64-29.28-19.53-57.9-29.29-86.86-4.77-14.16-10.02-28.22-13.62-42.69-3.7-14.9-6.06-30.18-8.26-45.4-1.92-13.27-3.37-26.66-3.97-40.05-.67-15.02-.54-30.1,0-45.13.28-8.01,1.72-16.06,3.41-23.93,1.83-8.53,4.82-16.8,6.76-25.31.93-4.09-.65-9.12,1.14-12.57,2.65-5.11,3.21-10.22,3.76-15.61,1.49-14.81,3.12-29.61,4.7-44.41ZM317.95,783.61c2.49-8.44,4.72-16.96,7.52-25.29,7.99-23.75,16.21-47.43,24.37-71.12,4.91-14.27,10.22-28.41,14.71-42.81,7.09-22.73,11.07-46.12,13.29-69.8.91-9.74,1.39-19.53,2.34-29.27,1.78-18.29.9-36.58-1.99-54.58-2.3-14.28-6.79-28.22-10.4-42.28-.25-.98-1.07-2.12-1.95-2.6-12.39-6.81-25.54-10.43-39.73-8.15-26.3,4.23-45.74,19.74-62.05,39.49-15.71,19.01-26.98,40.67-34.93,64.01-12.38,36.37-18.7,73.61-14.91,112.1,1.23,12.47,2.47,25.08,5.38,37.23,5.2,21.69,13.14,42.42,26.94,60.39,17.96,23.39,40.48,36.86,71.41,32.68Zm1293.01-148.84c-1.67-14.97-2.78-30.04-5.13-44.9-6-37.9-18.6-73.28-41.54-104.55-11.45-15.61-24.88-28.93-42.1-38.08-20.69-11.01-41.68-12.64-62.9-1.54-1.6.84-3.56,2.3-4.01,3.85-2.89,10.15-6.09,20.28-7.87,30.65-2.38,13.81-4.47,27.8-5,41.77-.52,13.73.81,27.55,1.79,41.3.8,11.23,1.82,22.49,3.57,33.6,3.14,19.99,7.24,39.7,14.75,58.73,6.86,17.39,11.97,35.46,17.81,53.25,7.89,24.01,15.72,48.05,23.68,72.04.49,1.47,1.84,3.72,2.87,3.76,7.06.28,14.34,1.1,21.19-.2,17.77-3.37,32.18-12.92,43.74-26.73,17.23-20.58,26.82-44.55,32.32-70.63,3.65-17.27,5.65-34.59,6.84-52.31Z"/>
  <path class="cls-3" d="m1453.75,384.57c-1.58,14.8-3.21,29.6-4.7,44.41-.54,5.39-1.11,10.5-3.76,15.61-1.79,3.45-.2,8.47-1.14,12.57-1.94,8.51-4.93,16.79-6.76,25.31-1.69,7.87-3.13,15.92-3.41,23.93-.53,15.03-.67,30.11,0,45.13.6,13.39,2.06,26.78,3.97,40.05,2.2,15.22,4.56,30.5,8.26,45.4,3.6,14.47,8.84,28.53,13.62,42.69,9.77,28.96,20.65,57.58,29.29,86.86,8.12,27.5,14.54,55.55,20.56,83.61,4.06,18.9,6.61,38.17,8.91,57.39,1.81,15.12,2.49,30.4,3.17,45.63.68,15.29,1.4,30.63.91,45.9-.66,20.34-1.68,40.73-4.03,60.92-2.78,23.9-6.12,47.83-11.11,71.34-5.03,23.72-11.49,47.24-18.95,70.32-6.77,20.92-14.82,41.56-23.99,61.55-10.65,23.2-22.04,46.21-35.13,68.1-13.09,21.9-27.9,42.88-43.32,63.24-27.93,36.87-60.48,69.4-96.31,98.72-39.31,32.16-81.92,59.04-127.73,80.82-34.03,16.18-69.25,29.36-105.7,38.99-17.71,4.67-35.51,9.24-53.52,12.46-20.13,3.6-40.52,5.77-60.84,8.26-8.69,1.07-17.53,2.32-26.2,1.84-17.32-.95-34.68-2.32-51.82-4.84-25.12-3.69-50.27-7.62-75.02-13.2-21.42-4.83-42.68-11.03-63.29-18.57-25.79-9.44-51.33-19.86-76.11-31.67-40.64-19.38-78.15-44.04-113.19-72.33-29.18-23.56-55.97-49.6-80.54-77.99-23.25-26.85-44.19-55.39-62.03-86-12.76-21.9-24.49-44.55-34.82-67.69-10.45-23.4-19.88-47.43-27.47-71.89-7.91-25.49-13.58-51.73-19.29-77.84-3.58-16.4-5.68-33.16-7.96-49.82-1.23-9-1.75-18.12-2.08-27.2-.84-23.07-2.09-46.16-1.83-69.22.2-18.37,1.65-36.8,3.85-55.05,3-24.97,6.47-49.94,11.16-74.63,3.9-20.53,9.53-40.75,14.98-60.95,3.59-13.3,7.95-26.42,12.46-39.45,4.62-13.35,10.09-26.4,14.72-39.75,4.18-12.07,7.05-24.63,11.71-36.5,8.26-21.05,12.34-43.06,15.49-65.19,2.52-17.69,3.32-35.65,4.32-53.52.6-10.85.25-21.76.08-32.64-.22-13.78-2.5-27.15-6.96-40.32-2.48-7.33-2.63-15.44-4.11-23.14-.66-3.44-2.41-6.68-2.98-10.13-1.5-9.12-3.03-18.27-3.8-27.47-.82-9.92-1.28-19.92-1.03-29.86.83-32.9,6.21-64.94,17.75-95.97,11.16-30.02,27.14-57.09,48.22-80.99,14.76-16.73,31.6-31.31,50.32-43.7,25.33-16.77,52.6-29.36,81.93-36.83,17.8-4.53,36.1-7.28,54.3-9.95,9.4-1.38,19.1-.59,28.64-1.2,18.04-1.14,36.06-2.59,54.1-3.88,5.79-.41,11.59-.75,17.39-1.09,23.03-1.35,46.05-2.62,69.08-4.04,14.4-.89,28.78-2.02,43.17-2.98,20.53-1.37,41.05-3.26,61.6-3.84,14.01-.4,28.08,1.03,42.12,1.7,5.8.28,11.59.77,17.39,1.1,12.77.72,25.55,1.25,38.3,2.13,16.7,1.14,33.38,2.6,50.08,3.82,11.09.81,22.19,1.4,33.28,2.14,19.19,1.28,38.38,2.68,57.57,3.89,13.26.83,26.54,2.11,39.8,1.99,32.23-.3,63.23,5.81,93.77,15.59,22,7.05,42.67,16.84,62.18,29.01,18.98,11.84,36.01,26.18,51.25,42.61,22.91,24.69,40.16,52.81,52.03,84.35,6.94,18.43,11.78,37.37,14.99,56.73,1.33,7.99,1.64,16.15,2.28,24.24.55,6.95.91,13.91,1.36,20.87.2.04.39.08.59.12Z"/>
  <path class="cls-3" d="m317.95,783.61c-30.93,4.18-53.45-9.29-71.41-32.68-13.8-17.97-21.74-38.7-26.94-60.39-2.91-12.15-4.15-24.75-5.38-37.23-3.79-38.49,2.53-75.73,14.91-112.1,7.94-23.34,19.22-45,34.93-64.01,16.32-19.75,35.75-35.26,62.05-39.49,14.18-2.28,27.34,1.34,39.73,8.15.88.48,1.7,1.61,1.95,2.6,3.61,14.07,8.1,28,10.4,42.28,2.9,18,3.77,36.29,1.99,54.58-.95,9.74-1.43,19.52-2.34,29.27-2.22,23.68-6.2,47.07-13.29,69.8-4.49,14.4-9.8,28.54-14.71,42.81-8.15,23.7-16.37,47.37-24.37,71.12-2.8,8.33-5.03,16.85-7.52,25.29Z"/>
  <path class="cls-3" d="m1610.96,634.77c-1.2,17.72-3.2,35.04-6.84,52.31-5.5,26.07-15.09,50.05-32.32,70.63-11.56,13.81-25.97,23.36-43.74,26.73-6.84,1.3-14.12.47-21.19.2-1.02-.04-2.38-2.29-2.87-3.76-7.96-23.99-15.79-48.02-23.68-72.04-5.84-17.79-10.95-35.86-17.81-53.25-7.51-19.03-11.61-38.74-14.75-58.73-1.74-11.12-2.77-22.37-3.57-33.6-.98-13.75-2.32-27.57-1.79-41.3.53-13.97,2.63-27.96,5-41.77,1.79-10.36,4.98-20.5,7.87-30.65.44-1.55,2.4-3.01,4.01-3.85,21.22-11.1,42.21-9.47,62.9,1.54,17.21,9.16,30.64,22.47,42.1,38.08,22.94,31.27,35.54,66.64,41.54,104.55,2.35,14.87,3.46,29.93,5.13,44.9Z"/>
</svg>