<?xml version="1.0" encoding="UTF-8"?>
<svg id="Capa_1" data-name="Capa 1" xmlns="http://www.w3.org/2000/svg" viewBox="0 0 1855 1780">
  <defs>
    <style>
      .cls-1, .cls-2 {
        stroke-width: 0px;
      }

      .cls-2 {
        fill: #fff;
      }
    </style>
  </defs>
  <path class="cls-1" d="m311.86,830.6c-7.61,1.25-15.02,3.57-22.39,3.45-15.82-.25-26.85-9.65-35.74-21.77-10.12-13.79-16.11-29.4-18.67-46.21-1.75-11.47-3.81-23.06-3.84-34.6-.07-27.04,4.63-53.25,19.99-76.24,8.11-12.14,18.58-21.92,34.1-23.74,11.99-1.4,22.66,1.98,31.93,9.76,1.24,1.04,2.52,2.05,4.2,3.42.9-7.87,1.81-15.17,2.57-22.49,1.12-10.88,1.96-21.79,3.23-32.65,1.76-14.97,3.51-29.95,5.83-44.84,4.21-27.03,8.46-54.07,13.38-80.97,5.42-29.61,12.4-58.91,22.61-87.25,5.22-14.49,11.85-28.54,18.68-42.37,5.77-11.67,12.22-23.1,19.34-34,11.08-16.99,24.69-32.03,39.13-46.22,34.47-33.88,74.12-60.46,116.85-82.78,30.12-15.74,61.23-29.19,93.44-39.77,24.38-8.01,49.23-14.84,74.23-20.62,21.56-4.99,43.51-9.11,65.51-11.2,28.7-2.73,57.61-3.43,86.45-4.33,17.06-.54,34.18-.18,51.25.49,14.71.58,29.44,1.63,44.04,3.43,20.52,2.53,41.04,5.36,61.35,9.16,16.42,3.07,32.72,7.13,48.74,11.88,20.18,5.98,40.19,12.64,59.97,19.83,32.39,11.78,63.36,26.71,93.26,43.9,24.31,13.97,47.33,29.79,68.91,47.64,19.39,16.05,36.84,34.04,52.7,53.68,11.04,13.67,18.59,29.21,27.3,44.23,7.02,12.12,13.5,24.34,18.35,37.34,11.96,31.99,20.06,65.08,26.35,98.6,4.25,22.66,8.39,45.35,11.86,68.13,2.92,19.16,4.98,38.45,7.11,57.72,1.94,17.45,3.44,34.96,5.19,52.43.19,1.92.75,3.8,1.04,5.25,6.12-3.48,11.8-7.74,18.18-10.13,15.45-5.8,29.49-2.19,41.48,8.83,13.39,12.31,20.69,28.07,25.4,45.41,5.47,20.11,7.08,40.49,4.78,61.05-2.48,22.12-7.66,43.53-20.85,62.14-16.1,22.71-34.2,28.06-60.04,17.41,0,6.61,0,13.02,0,19.43,0,21.16-.02,42.33-.03,63.49,0,4.17.02,8.33-.05,12.5-.32,20.3-.41,40.6-1.09,60.88-.65,19.21-1.76,38.4-3,57.58-1.11,17.16-2.37,34.32-4.09,51.43-1.94,19.23-4.15,38.45-6.83,57.59-3.35,23.88-6.87,47.76-11.16,71.48-2.85,15.75-6.78,31.34-10.95,46.8-3.29,12.18-7.75,24.03-11.58,36.07-9.38,29.46-24.69,55.76-43.51,80.01-25.42,32.75-56.35,59.67-90.12,83.53-29.42,20.79-60.66,38.38-93.09,53.88-27.56,13.17-55.79,24.79-85.05,33.65-23.85,7.23-47.72,14.59-71.92,20.47-20.31,4.93-41.11,7.82-61.69,11.59-14.06,2.58-28.08,5.35-42.2,7.56-5.38.84-10.96.4-16.45.43-9.83.04-19.69.45-29.49-.12-15.83-.92-31.66-2.22-47.43-3.88-15.92-1.68-31.82-3.61-47.62-6.13-13.99-2.23-27.88-5.22-41.73-8.23-34.62-7.51-68.49-17.64-101.74-29.8-31.38-11.48-61.76-25.24-91.24-40.98-30.88-16.49-60.29-35.24-87.63-57.13-32.84-26.29-62.09-55.93-83.93-92.2-8.36-13.88-16.64-27.85-21.19-43.68-3.78-13.12-7.86-26.19-12.52-39.02-8.56-23.54-12.78-48.09-17.35-72.53-3.15-16.88-5.1-33.99-7.3-51.03-2.47-19.17-4.79-38.37-6.81-57.6-1.11-10.53-1.45-21.13-2.19-31.7-1.23-17.5-2.58-34.99-3.75-52.49-.57-8.6-1.04-17.21-1.23-25.82-.46-20.46-.73-40.92-1.05-61.39-.32-20.25-.77-40.51-.85-60.77-.04-11.07.57-22.14.85-33.21.04-1.59-.14-3.19-.16-3.67ZM835.07,104.17c-20.39,2.5-38.69,4.47-56.91,7.03-31.3,4.4-62.04,11.57-92.27,20.69-37.15,11.2-73.24,25.19-107.94,42.68-36.49,18.39-70.84,39.93-102.26,66.2-25.84,21.61-48.53,45.98-66.11,74.69-9.44,15.42-18.16,31.47-25.29,48.06-11.49,26.76-18.88,54.94-24.85,83.45-3.16,15.08-6.52,30.13-9.15,45.31-3.21,18.57-5.84,37.24-8.52,55.9-1.72,11.96-3.14,23.96-4.58,35.96-1.32,11.02-2.54,22.05-3.71,33.09-1.16,10.88-2.35,21.76-3.26,32.65-.88,10.41-1.35,20.85-2.14,31.26-1.24,16.52-2.78,33.03-3.85,49.56-.92,14.08-1.53,28.19-1.99,42.3-.81,24.93-1.83,49.87-1.95,74.81-.15,29.77.51,59.55.9,89.32.25,19.29.61,38.58,1.03,57.86.16,7.3.51,14.6,1.01,21.88,1.23,17.65,2.6,35.29,3.92,52.93,1.04,13.86,1.74,27.76,3.2,41.57,1.97,18.73,4.27,37.44,6.9,56.08,2.51,17.8,5.08,35.63,8.64,53.24,3.28,16.22,7.8,32.2,12,48.22,7.19,27.44,14.32,54.96,29.57,79.36,8.69,13.9,17,28.18,27.14,40.98,25.95,32.74,57.78,59.22,92.15,82.69,24.17,16.5,49.45,31.12,75.91,43.65,15.12,7.16,30.21,14.48,45.72,20.71,37.21,14.94,75.29,27.33,114.41,36.32,13.03,2.99,26.11,5.89,39.28,8.16,15.94,2.75,31.96,5.2,48.03,7.04,18.39,2.1,36.87,4.56,55.33,4.68,19.65.13,39.37-1.8,58.97-3.75,17.24-1.71,34.44-4.19,51.5-7.21,33.22-5.87,65.9-14.08,98.09-24.18,39.46-12.38,77.95-27.38,114.47-46.75,24.15-12.81,47.85-26.8,70.41-42.23,44.53-30.45,83.91-66.26,111.26-113.84,8.53-14.83,16.33-29.84,21.48-46.12,4.27-13.5,7.85-27.22,12.2-40.7,8.2-25.44,12.85-51.64,16.91-77.93,3.35-21.71,5.76-43.57,8.18-65.4,2.26-20.37,4.19-40.78,5.9-61.21,1.31-15.66,2.21-31.37,3.03-47.07.85-16.4,1.49-32.82,2.03-49.24.47-14.27.98-28.55.93-42.83-.11-28.96-.44-57.93-.95-86.89-.44-25.11-1.23-50.21-1.92-75.31-.31-11.14-.5-22.28-1.18-33.4-1.1-17.87-2.55-35.71-3.87-53.56-.71-9.59-1.31-19.19-2.23-28.76-1.1-11.38-2.54-22.72-3.73-34.09-1.14-10.88-1.91-21.8-3.3-32.64-2.02-15.76-4.32-31.48-6.75-47.18-2.75-17.8-5.38-35.64-8.79-53.32-3.58-18.55-7.22-37.15-12.28-55.33-6.42-23.03-12.74-46.3-21.95-68.27-11.4-27.19-28.54-51.3-47.47-74.01-20.18-24.19-43.91-44.43-69.43-62.61-21.81-15.53-44.72-29.3-68.59-41.52-32.06-16.41-65.32-29.83-99.49-41.01-30.2-9.88-61.01-17.48-92.34-22.73-17.17-2.88-34.42-5.95-51.75-6.99-27.05-1.62-54.2-1.73-81.31-2.2-16.79-.29-33.59-.05-48.34-.05Zm706.59,638.14c-.98-11.05-1.22-22.22-3.1-33.11-3.06-17.69-8.9-34.51-20.76-48.5-6.71-7.92-14.64-14.12-25.72-14.23-13.09-.13-21.94,7.54-29.78,16.75-.93,1.09-1.11,3.14-1.02,4.7.55,9.43,1.31,18.84,1.94,28.26,1.33,19.84,2.92,39.67,3.86,59.53,1.01,21.24,1.37,42.5,2.15,63.75.06,1.63.75,3.9,1.94,4.7,7.79,5.29,16.13,8.85,25.79,5.55,11.6-3.96,19.66-12.15,25.99-22.26,12.45-19.9,17.04-41.98,18.72-65.16Zm-1221.8-77.84c-.01-6.58.09-6.97-5.84-12.38-14.04-12.81-29.13-15.44-44.03-2-5.69,5.13-10.55,11.65-14.28,18.36-7.9,14.21-12.02,29.69-13.67,45.98-2.4,23.7-.48,46.81,7.77,69.19,5.42,14.73,13.1,28,26.64,37.04,10.53,7.03,23.12,7,33.13-.56,1.05-.8,2.04-2.31,2.17-3.59.55-5.44.89-10.91,1.07-16.38.73-22.08,1.33-44.17,2.08-66.25.19-5.8.68-11.59,1.1-17.37,1.27-17.35,2.58-34.7,3.86-52.05Z"/>
  <path class="cls-2" d="m835.07,104.17c14.75,0,31.55-.24,48.34.05,27.11.47,54.26.58,81.31,2.2,17.33,1.04,34.58,4.11,51.75,6.99,31.33,5.25,62.14,12.86,92.34,22.73,34.18,11.18,67.44,24.6,99.49,41.01,23.87,12.22,46.78,25.98,68.59,41.52,25.52,18.18,49.25,38.42,69.43,62.61,18.94,22.7,36.08,46.82,47.47,74.01,9.21,21.97,15.53,45.24,21.95,68.27,5.07,18.17,8.71,36.78,12.28,55.33,3.41,17.68,6.04,35.52,8.79,53.32,2.43,15.7,4.73,31.43,6.75,47.18,1.39,10.84,2.16,21.77,3.3,32.64,1.2,11.37,2.63,22.71,3.73,34.09.92,9.57,1.52,19.17,2.23,28.76,1.32,17.85,2.77,35.7,3.87,53.56.68,11.11.87,22.26,1.18,33.4.69,25.1,1.48,50.2,1.92,75.31.51,28.96.84,57.93.95,86.89.05,14.27-.46,28.56-.93,42.83-.54,16.42-1.18,32.84-2.03,49.24-.82,15.7-1.71,31.4-3.03,47.07-1.71,20.42-3.64,40.84-5.9,61.21-2.42,21.84-4.83,43.7-8.18,65.4-4.06,26.29-8.71,52.5-16.91,77.93-4.35,13.48-7.93,27.2-12.2,40.7-5.16,16.28-12.96,31.29-21.48,46.12-27.35,47.58-66.73,83.39-111.26,113.84-22.56,15.43-46.26,29.42-70.41,42.23-36.52,19.37-75,34.37-114.47,46.75-32.19,10.1-64.87,18.31-98.09,24.18-17.06,3.02-34.26,5.5-51.5,7.21-19.6,1.95-39.32,3.88-58.97,3.75-18.46-.12-36.94-2.58-55.33-4.68-16.07-1.83-32.09-4.29-48.03-7.04-13.17-2.27-26.25-5.17-39.28-8.16-39.12-8.99-77.2-21.38-114.41-36.32-15.51-6.23-30.6-13.55-45.72-20.71-26.45-12.52-51.74-27.15-75.91-43.65-34.38-23.46-66.21-49.95-92.15-82.69-10.14-12.8-18.45-27.08-27.14-40.98-15.25-24.4-22.39-51.92-29.57-79.36-4.2-16.03-8.72-32-12-48.22-3.57-17.61-6.13-35.44-8.64-53.24-2.63-18.65-4.93-37.35-6.9-56.08-1.46-13.82-2.16-27.71-3.2-41.57-1.32-17.64-2.69-35.28-3.92-52.93-.51-7.28-.85-14.58-1.01-21.88-.42-19.29-.78-38.57-1.03-57.86-.39-29.77-1.05-59.55-.9-89.32.12-24.94,1.15-49.88,1.95-74.81.46-14.11,1.07-28.21,1.99-42.3,1.08-16.53,2.61-33.04,3.85-49.56.78-10.41,1.26-20.85,2.14-31.26.92-10.9,2.11-21.78,3.26-32.65,1.18-11.04,2.39-22.07,3.71-33.09,1.44-12,2.86-24,4.58-35.96,2.68-18.66,5.32-37.33,8.52-55.9,2.62-15.18,5.98-30.23,9.15-45.31,5.98-28.5,13.36-56.69,24.85-83.45,7.12-16.59,15.85-32.65,25.29-48.06,17.58-28.71,40.27-53.08,66.11-74.69,31.42-26.27,65.77-47.81,102.26-66.2,34.71-17.49,70.8-31.48,107.94-42.68,30.23-9.12,60.97-16.29,92.27-20.69,18.22-2.56,36.52-4.53,56.91-7.03Z"/>
  <path class="cls-2" d="m1541.66,742.31c-1.68,23.18-6.26,45.27-18.72,65.16-6.33,10.1-14.39,18.3-25.99,22.26-9.66,3.3-18-.27-25.79-5.55-1.19-.81-1.88-3.08-1.94-4.7-.78-21.25-1.14-42.52-2.15-63.75-.95-19.86-2.53-39.69-3.86-59.53-.63-9.42-1.39-18.84-1.94-28.26-.09-1.57.1-3.62,1.02-4.7,7.84-9.21,16.7-16.88,29.78-16.75,11.08.11,19.01,6.31,25.72,14.23,11.86,14,17.7,30.81,20.76,48.5,1.89,10.89,2.12,22.06,3.1,33.11Z"/>
  <path class="cls-2" d="m319.87,664.47c-1.29,17.35-2.6,34.7-3.87,52.05-.42,5.79-.91,11.58-1.1,17.37-.74,22.08-1.35,44.17-2.08,66.25-.18,5.47-.53,10.94-1.07,16.38-.13,1.27-1.12,2.79-2.17,3.59-10.01,7.56-22.6,7.59-33.13.56-13.54-9.04-21.22-22.31-26.64-37.04-8.24-22.38-10.16-45.49-7.77-69.19,1.65-16.29,5.76-31.77,13.67-45.98,3.74-6.72,8.6-13.24,14.28-18.36,14.9-13.44,29.99-10.81,44.03,2,5.93,5.41,5.83,5.8,5.85,12.38Z"/>
</svg>