<?xml version="1.0" encoding="UTF-8"?>
<svg id="Capa_1" data-name="Capa 1" xmlns="http://www.w3.org/2000/svg" viewBox="0 0 1855 1780">
  <defs>
    <style>
      .cls-1, .cls-2 {
        stroke-width: 0px;
      }

      .cls-2 {
        fill: #fff;
      }
    </style>
  </defs>
  <path class="cls-1" d="m1370.13,847.24c11.19-7.16,22.23-9.73,33.93-4.44,9.76,4.41,15.71,12.73,20.2,22.01,9.32,19.23,11.45,39.55,9.95,60.77-1.3,18.47-5.53,35.85-14.57,51.88-3.39,6.01-7.74,11.81-12.79,16.48-12.29,11.36-26.24,12.46-41.45,4.15-.49,7.43-1.67,14.63-1.32,21.76,1.24,25.14-4.42,49.34-8.63,73.83-6.14,35.69-20.99,67.97-37.27,99.73-33.64,65.63-75.06,126.06-123.28,181.8-37.36,43.19-78.38,82.59-123.91,117.14-39.91,30.29-82.35,56.28-128.87,75.27-19.96,8.15-40.56,14.15-61.41,19.59-12,3.13-23.87,4.99-36.19,4.89-12.77-.09-24.64-4.43-36.78-7.44-38.76-9.62-74.86-25.68-109.58-45.23-39.78-22.4-76.3-49.31-110.63-79.21-44.97-39.16-85.1-82.9-121.26-130.32-31.46-41.25-59.33-84.78-83.58-130.62-14.53-27.47-27.87-55.58-35.85-85.68-4.89-18.47-7.99-37.49-10.61-56.45-1.97-14.24-1.89-28.76-2.76-43.15-.07-1.13-.4-2.25-.61-3.39-.67-.06-1.18-.22-1.63-.13-19.04,3.57-32.19-5.64-42.28-20.25-10.83-15.69-16.94-33.18-19.89-52.17-2.68-17.25-2.62-34.11,1.59-50.93,2.74-10.93,7.32-21.05,15.3-29.31,9.14-9.45,24.18-11.93,35.99-5.95,2.18,1.11,4.35,2.24,6.77,3.48.2-1.11.43-1.74.41-2.37-.69-22.76-1.38-45.52-2.13-68.27-.25-7.45-.74-14.89-.95-22.35-.41-14.47-.63-28.94-1.05-43.4-.96-32.9-1.9-65.8-3.04-98.69-.36-10.43-1.72-20.83-1.88-31.26-.43-28.48,3.08-56.64,8.13-84.61,5.48-30.32,13.78-59.89,24.77-88.66,15.57-40.78,36.15-78.86,61.76-114.25,16.93-23.39,35.85-45.05,56.7-64.94,34.16-32.59,72.33-59.66,114.51-81.01,26.48-13.41,53.87-24.53,82.34-32.88,22.27-6.53,44.92-11.34,67.92-14.82,26.49-4.01,53.1-5.54,79.81-5.71,10.76-.07,21.52,1.28,32.29,1.38,8.24.08,16.49-.97,24.74-1.19,8.65-.23,17.33-.29,25.98,0,9.29.31,18.6.73,27.82,1.79,18.73,2.14,37.52,4.03,56.07,7.31,29.31,5.18,57.76,13.7,85.51,24.54,43.7,17.08,84.16,39.93,121.19,68.69,27.53,21.39,52.42,45.62,74.73,72.44,21.78,26.19,40.46,54.48,56.34,84.58,18.71,35.47,33.1,72.71,42.3,111.7,5.27,22.37,8.71,45.22,11.82,68.02,2.1,15.42,3.1,31.12,2.97,46.68-.2,23.57-1.93,47.13-2.76,70.7-.58,16.45-.69,32.91-1.11,49.37-.61,23.76-1.31,47.51-1.99,71.26-.3,10.45-.64,20.9-.97,31.35-.34,10.78-.69,21.56-1.02,32.35-.03,1.11.11,2.22.22,4.16Zm-1028.03,186.99c1.61,11.76,3,24.24,5.08,36.6,2.34,13.83,4.18,27.89,8.24,41.25,7.48,24.58,16.89,48.57,29.36,71.12,14.46,26.16,28.44,52.69,44.65,77.76,18.04,27.9,37.61,54.89,57.88,81.23,20.81,27.04,44.1,52.03,68.41,76.05,33.57,33.18,69.53,63.4,108.67,89.81,31.09,20.98,63.84,38.87,98.68,52.8,22.81,9.12,46.26,16.14,70.56,19.99,6.36,1.01,12.98,2.58,19.21,1.79,23.69-3.01,46.83-8.72,69.29-16.87,25.19-9.14,49.3-20.62,72.68-33.71,32.6-18.26,62.92-39.82,91.81-63.41,35.78-29.22,68.59-61.56,99-96.28,25.24-28.81,48.39-59.26,69.96-90.95,22.67-33.31,43.25-67.88,60.76-104.11,13.09-27.06,25.79-54.48,30.34-84.76,2.36-15.67,6.54-31.13,7.96-46.86,1.79-19.83,1.61-39.83,2.26-59.76.69-21.26,1.38-42.51,2.02-63.77.69-23.08,1.31-46.16,1.98-69.25.31-10.73.67-21.46,1-32.19.67-21.94,1.34-43.87,1.99-65.81.68-22.59,1.41-45.18,1.98-67.77.45-17.45.47-34.91,1.09-52.34.58-16.19,2.25-32.35,2.38-48.54.09-11.72-1.1-23.51-2.51-35.18-2.11-17.42-3.84-34.99-7.7-52.06-5-22.14-11.37-44.03-18.16-65.71-9.03-28.84-22.02-56.05-37.17-82.15-18.94-32.62-41.1-62.89-67.13-90.31-19.99-21.06-41.66-40.15-65.01-57.34-19.59-14.42-40.27-27.1-61.88-38.29-24.27-12.57-49.41-23.05-75.49-31.24-26.67-8.38-53.71-15.21-81.6-18.07-17.79-1.82-35.59-3.79-53.43-4.66-12.74-.62-25.56.72-38.35.75-10.62.03-21.25-1.09-31.86-.81-22.9.62-45.81,1.36-68.65,2.93-23.04,1.58-45.66,6.11-68.09,11.73-51.12,12.81-98.78,33.5-143.08,61.97-35.6,22.88-67.49,50.15-95.84,81.57-26.44,29.3-48.56,61.62-67.23,96.35-14.94,27.79-26.72,56.93-35.94,87.03-8.17,26.67-14.18,53.88-17.33,81.67-2.17,19.17-4.58,38.23-3.38,57.68,1.47,23.69,1.77,47.46,2.56,71.19.34,10.29.7,20.58.98,30.88.37,13.8.64,27.59,1.03,41.39.25,8.8.63,17.6.97,26.4.92,23.9,1.94,47.79,2.74,71.69.33,9.75.1,19.52.31,29.28.21,10.13.68,20.25.96,30.37.69,24.76,1.31,49.51,2,74.27.23,8.13-.66,16.58,1.29,24.28,1.32,5.19,4.28,9.32-.08,14.21-.59.67-.18,2.26-.18,3.43,0,7.96,0,15.92,0,24.71Zm1027.28-174.53c-1.31,42.15-2.64,84.78-3.96,127.05,2.64,1.11,5.21,1.82,7.39,3.17,8.9,5.53,15.98,5.52,24.54-.56,7.81-5.55,13.2-13.15,17.13-21.73,11.7-25.54,13.97-52.21,7.99-79.43-2.77-12.6-7.95-24.35-18.24-33.13-8.15-6.95-18.97-7.34-26.95-.75-2.25,1.86-4.83,3.31-7.9,5.38Zm-1040.6,6.9c-2.75-1.4-5.25-2.32-7.35-3.81-10.1-7.18-20.61-5.85-28.92,3.36-11.64,12.91-14.8,28.82-15.78,45.23-1.15,19.17,2.41,37.81,9.83,55.5,5.61,13.36,13.09,25.51,26.57,32.62,5.33,2.81,10.88,3.38,16.27.72,1.62-.8,3.26-3.42,3.28-5.23.1-6.62-.61-13.25-.78-19.88-.73-29.09-1.34-58.18-2.08-87.27-.18-7.14-.69-14.28-1.04-21.24Z"/>
  <path class="cls-2" d="m342.1,1034.23c0-8.79,0-16.75,0-24.71,0-1.16-.42-2.76.18-3.43,4.36-4.9,1.4-9.03.08-14.21-1.96-7.71-1.07-16.15-1.29-24.28-.69-24.76-1.31-49.51-2-74.27-.28-10.13-.75-20.25-.96-30.37-.2-9.76.02-19.53-.31-29.28-.8-23.9-1.82-47.79-2.74-71.69-.34-8.8-.72-17.6-.97-26.4-.39-13.8-.66-27.59-1.03-41.39-.28-10.29-.63-20.58-.98-30.88-.79-23.74-1.09-47.5-2.56-71.19-1.21-19.44,1.21-38.51,3.38-57.68,3.14-27.79,9.16-55,17.33-81.67,9.22-30.1,21-59.24,35.94-87.03,18.67-34.73,40.79-67.05,67.23-96.35,28.34-31.41,60.23-58.68,95.84-81.57,44.3-28.48,91.96-49.16,143.08-61.97,22.43-5.62,45.04-10.15,68.09-11.73,22.85-1.56,45.76-2.3,68.65-2.93,10.6-.29,21.24.83,31.86.81,12.79-.03,25.61-1.37,38.35-.75,17.85.87,35.65,2.84,53.43,4.66,27.89,2.85,54.92,9.69,81.6,18.07,26.08,8.19,51.21,18.66,75.49,31.24,21.61,11.19,42.29,23.87,61.88,38.29,23.35,17.19,45.02,36.28,65.01,57.34,26.04,27.42,48.2,57.7,67.13,90.31,15.15,26.09,28.14,53.31,37.17,82.15,6.79,21.68,13.16,43.56,18.16,65.71,3.85,17.07,5.59,34.64,7.7,52.06,1.41,11.66,2.61,23.46,2.51,35.18-.13,16.18-1.8,32.35-2.38,48.54-.62,17.44-.65,34.9-1.09,52.34-.58,22.59-1.31,45.18-1.98,67.77-.66,21.94-1.33,43.87-1.99,65.81-.33,10.73-.69,21.46-1,32.19-.67,23.08-1.29,46.16-1.98,69.25-.64,21.26-1.33,42.51-2.02,63.77-.65,19.93-.47,39.94-2.26,59.76-1.42,15.73-5.6,31.19-7.96,46.86-4.55,30.28-17.25,57.69-30.34,84.76-17.51,36.23-38.09,70.79-60.76,104.11-21.57,31.69-44.72,62.13-69.96,90.95-30.41,34.72-63.22,67.07-99,96.28-28.89,23.59-59.21,45.16-91.81,63.41-23.38,13.09-47.49,24.57-72.68,33.71-22.46,8.15-45.61,13.86-69.29,16.87-6.23.79-12.85-.78-19.21-1.79-24.3-3.85-47.75-10.87-70.56-19.99-34.84-13.93-67.6-31.82-98.68-52.8-39.14-26.41-75.1-56.63-108.67-89.81-24.31-24.02-47.6-49.01-68.41-76.05-20.27-26.34-39.84-53.34-57.88-81.23-16.21-25.07-30.19-51.59-44.65-77.76-12.46-22.55-21.87-46.54-29.36-71.12-4.06-13.35-5.9-27.42-8.24-41.25-2.09-12.36-3.48-24.84-5.08-36.6Z"/>
  <path class="cls-2" d="m1369.38,859.7c3.07-2.07,5.65-3.52,7.9-5.38,7.98-6.59,18.8-6.2,26.95.75,10.29,8.78,15.47,20.53,18.24,33.13,5.98,27.22,3.71,53.89-7.99,79.43-3.93,8.58-9.32,16.18-17.13,21.73-8.56,6.08-15.64,6.09-24.54.56-2.18-1.35-4.75-2.06-7.39-3.17,1.32-42.26,2.65-84.9,3.96-127.05Z"/>
  <path class="cls-2" d="m328.78,866.61c.35,6.96.86,14.1,1.04,21.24.74,29.09,1.35,58.18,2.08,87.27.17,6.63.88,13.26.78,19.88-.03,1.81-1.67,4.44-3.28,5.23-5.38,2.65-10.93,2.09-16.27-.72-13.48-7.11-20.96-19.26-26.57-32.62-7.43-17.69-10.98-36.32-9.83-55.5.99-16.41,4.14-32.32,15.78-45.23,8.31-9.21,18.82-10.54,28.92-3.36,2.1,1.49,4.61,2.41,7.35,3.81Z"/>
</svg>